<?xml version="1.0" encoding="UTF-8" standalone="no"?>
<!-- Created with Inkscape (http://www.inkscape.org/) -->

<svg
   width="50mm"
   height="40mm"
   viewBox="0 0 50 40"
   version="1.1"
   id="svg5"
   xml:space="preserve"
   inkscape:version="1.2.1 (9c6d41e410, 2022-07-14)"
   sodipodi:docname="u022_302.svg"
   xmlns:inkscape="http://www.inkscape.org/namespaces/inkscape"
   xmlns:sodipodi="http://sodipodi.sourceforge.net/DTD/sodipodi-0.dtd"
   xmlns="http://www.w3.org/2000/svg"
   xmlns:svg="http://www.w3.org/2000/svg"><sodipodi:namedview
     id="namedview7"
     pagecolor="#ffffff"
     bordercolor="#999999"
     borderopacity="1"
     inkscape:showpageshadow="0"
     inkscape:pageopacity="0"
     inkscape:pagecheckerboard="0"
     inkscape:deskcolor="#d1d1d1"
     inkscape:document-units="mm"
     showgrid="false"
     inkscape:zoom="3.3638608"
     inkscape:cx="137.93674"
     inkscape:cy="87.845489"
     inkscape:window-width="1265"
     inkscape:window-height="993"
     inkscape:window-x="0"
     inkscape:window-y="47"
     inkscape:window-maximized="0"
     inkscape:current-layer="layer1" /><defs
     id="defs2"><clipPath
       clipPathUnits="userSpaceOnUse"
       id="clipPath23"><path
         d="M 11333,5522 H 28352 V 22541 H 11333 Z"
         id="path21" /></clipPath><clipPath
       clipPathUnits="userSpaceOnUse"
       id="clipPath22427"><path
         d="M -6,-6 H 39691 V 28069 H -6 Z"
         id="path22425" /></clipPath><clipPath
       clipPathUnits="userSpaceOnUse"
       id="clipPath22793"><path
         d="M -6,-6 H 39691 V 28069 H -6 Z"
         id="path22791" /></clipPath></defs><g
     inkscape:label="Layer 1"
     inkscape:groupmode="layer"
     id="layer1"><g
       id="g22789"
       clip-path="url(#clipPath22793)"
       transform="matrix(0.00264217,0,0,-0.00281746,-27.425974,59.549212)"><path
         d="m 28140,16188 -769,80 -1130,-234 1898,-148 v 302 h 1 m 1151,-119 -1065,110 v 0 -300 l 1065,-84 v 274 m 0,511 -1065,120 v 0 -282 l 607,-70 458,89 v 0 143 m -1152,130 -1898,215 -894,-276 1863,-164 20,-1 v 0 l 141,32 769,-88 h -1 v 282 m 0,424 -2792,321 -719,-300 1286,-116 v 0 l 327,108 1898,-231 v 218 m 87,-229 h 3 l 366,95 -233,108 -136,16 v 0 -219 m 587,151 -373,43 h 1 l 192,-89 v 0 l 180,46 m -3466,600 2266,-275 v 0 l 97,31 -374,176 -2206,246 v 0 -273 l 217,95 m 2665,-144 -600,67 v 0 l 332,-156 v 1 l 268,88 m -2962,14 v 317 l -422,48 -584,-313 937,-83 v 0 l 69,31 m -1361,399 435,-36 151,-12 353,197 422,-49 v 123 h 1 l -1007,106 -477,-318 122,-11 m 2776,73 -1335,141 v 0 -123 0 l 1728,-203 h -1 l -392,186 v -1 m 468,-194 108,-12 v 0 l 287,115 -791,84 v 0 l 395,-187 h 1 m -192,449 -951,92 h 1 l 311,-148 v 0 l 426,-47 v 0 l 213,103 m -1021,99 -590,57 v 0 -105 0 l 899,-99 v 0 l -225,108 -84,40 v -1 m -2349,-125 352,-27 v 0 l 321,223 1006,-111 v 105 0 l -926,89 v 0 l -753,-279 v 0 m -179,739 109,48 -451,34 -268,-312 83,-5 492,219 v 0 l 17,17 18,-1 v 0 m -610,152 -135,-183 188,-8 v 0 l 215,257 582,-45 v 0 53 0 l -753,47 h -1 l -96,-121 m 1086,60 -167,10 v 0 -54 0 l 59,-5 v 0 l 108,49 v 0 m 783,-550 600,-60 h -1 v 92 l -416,36 v 0 l -183,-68 v 0 m 946,-95 676,-67 v 0 l 162,92 -1084,94 v 0 l 247,-119 h -1 m 401,295 -668,50 v -85 0 l 543,-48 v 0 l 125,83 m -668,-268 197,-20 v 1 l -197,94 v 0 -75 m -190,250 110,-9 v 50 l -110,-41 m 3882,-3374 -1451,-162 1920,-111 v 0 152 84 z"
         style="fill:#8f7143;fill-opacity:1;fill-rule:evenodd;stroke:#8f7143;stroke-width:25;stroke-linecap:butt;stroke-linejoin:miter;stroke-miterlimit:10;stroke-dasharray:none;stroke-opacity:1"
         id="path22795" /><path
         d="m 16166,10292 v -853 l 50,-14 v 813 0 1626 l -50,6 v -1578 m 2064,907 v -572 l 44,-6 v 602 l -44,-24 m 841,488 v -43 -425 l 25,-15 v 444 55 l -25,-16 m 148,-3086 v 2875 l -69,9 V 8620 l 69,-19 m -206,2269 -68,11 V 8991 l 68,-17 v 1896 m 0,-2295 v 399 l -68,17 v -481 l 68,65 m 983,1009 v 154 105 44 l -51,9 -9,1 v -140 -168 -102 0 l 60,65 v 0 32 m 704,791 v -75 l 53,-7 v 154 0 l -1,-1 v 0 87 0 h 1 v 413 l -53,-59 v -512 m 471,920 v -258 l 50,9 v 526 l -50,-78 v -199 m 0,281 v -11 l 50,7 v 1054 l -50,-47 v -1003 m -2941,838 v -1186 l 44,-5 v 1203 l -5,1 -39,-13 m 841,278 v -977 l 25,-12 v 10 1 987 l -25,-9 m 1629,-1630 v -104 0 l 53,-12 v 71 41 535 10 669 l -53,-33 v -632 -11 -534 m 7439,6150 87,-40 v 2861 l -87,-32 v -2789 m -3009,1423 -77,37 v 0 l -3,-1 v -1145 l 80,35 v 1074 0 m 3096,-2998 v 1535 l -87,40 v -1587 l 87,12 m -3096,4191 v 1125 l -80,17 v -1178 l 80,36 m -1248,-555 -381,191 v 741 0 l -69,-77 v -655 l 414,-210 7,-3 29,13 m -711,333 261,-133 v 26 l -234,120 -145,76 -17,-20 v 0 l 135,-69 m 1882,-934 77,-37 197,-94 477,-228 225,-108 436,-206 392,-186 479,-225 374,-176 126,-59 303,-141 v 27 l -223,104 -172,80 -332,156 -480,225 -395,187 -435,206 -311,148 -393,188 -247,119 -21,10 v 219 0 l -80,-30 v -178 l 3,-1 m -3,28 -176,86 -32,-12 208,-101 v 27 m 4241,-1996 -1065,495 v 0 -27 l 136,-64 929,-430 v 26 m -5790,2399 v 335 l -69,35 v -400 l 69,30 m 1159,1943 1985,-390 h 1 1 l 6,5 v 0 h -1 l -1992,385 m 2081,-403 -88,18 v 0 l -6,-5 h -1 1 l 237,-48 10,5 z"
         style="fill:#fdab01;fill-opacity:1;fill-rule:evenodd;stroke:#fdab01;stroke-width:25;stroke-linecap:butt;stroke-linejoin:miter;stroke-miterlimit:10;stroke-dasharray:none;stroke-opacity:1"
         id="path22797" /><path
         d="m 19150,10740 -137,130 v -53 l 137,-130 v 53 0 m 69,-120 547,-540 v 0 l 28,24 -575,569 v -53 m 777,-777 136,-145 v 0 l 24,26 v 0 l -237,251 -89,92 h -1 l -27,-23 v -1 l 117,-120 26,-27 v 0 l 51,-9 z"
         style="fill:#dc9501;fill-opacity:1;fill-rule:evenodd;stroke:#dc9501;stroke-width:25;stroke-linecap:butt;stroke-linejoin:miter;stroke-miterlimit:10;stroke-dasharray:none;stroke-opacity:1"
         id="path22799" /><path
         d="m 20700,10958 v 104 l -1481,120 v -502 0 l 700,-67 80,-8 290,-28 31,-2 v 0 l 97,93 96,95 94,97 93,98 v 0 m -21,-418 21,-2 v 0 349 l -77,-82 -79,-81 -81,-78 -82,-77 h -1 l 232,-22 67,-7 m 74,406 v -413 h -1 l 59,-5 v 0 l 38,53 108,162 90,149 75,136 -279,23 -45,-53 -45,-52 m 0,71 35,38 v 0 l -35,3 v -41 m -1631,-304 -109,104 v -229 0 l 109,101 v 0 24 0 m -177,168 68,-11 109,-104 v 424 l -143,-111 -161,-120 -182,-130 -205,-139 -232,-152 -261,-165 -295,-180 -334,-197 -378,-216 -429,-239 -489,-265 893,-263 v 0 l 25,17 378,254 334,232 v 0 l 140,100 140,101 138,102 138,103 v 0 l 18,13 v 0 l 90,69 90,69 139,110 138,113 137,115 134,116 v 0 354 m 3905,8574 -76,-95 v 0 l 659,-42 h -1 v 155 l -24,12 -434,22 -77,4 v 0 l -47,-56 m 662,25 -11,1 v -17 l 342,-172 v 0 l 72,-5 v 0 l 350,156 v 0 l -753,37 m -11,-166 279,-18 h 1 l -280,142 v -124 0 m 2734,1027 v -21 l 506,225 v 0 92 0 l -94,19 v 0 l -236,-181 -176,-134 m 1093,465 v 312 h -62 l -204,-152 -321,-239 v -84 0 l 153,-30 434,193 v 0 m -675,-145 88,-18 v 0 84 l -46,-34 -42,-32 v 0 m 231,-53 -143,29 v 0 -92 0 l 143,63 v 0 m 444,510 v -312 0 l 684,304 v 8 h -684 m -1093,-777 -64,-50 64,29 v 21 m -3653,-1478 53,64 v 0 l -188,8 -86,-116 221,-10 v 54 m -3637,-7982 68,-11 109,-104 v 424 l -143,-111 -161,-120 -182,-130 -205,-139 -232,-152 -261,-165 -295,-180 -334,-197 -378,-216 -429,-239 -489,-265 893,-263 v 0 l 25,17 378,254 334,232 v 0 l 140,100 140,101 138,102 138,103 v 0 l 18,13 v 0 l 90,69 90,69 139,110 138,113 137,115 134,116 v 0 354 m 177,-115 28,-26 v 0 448 0 l -28,2 v -424 m 0,-53 v -24 l 28,-3 v 1 z"
         style="fill:#dc9501;fill-opacity:1;fill-rule:evenodd;stroke:#dc9501;stroke-width:25;stroke-linecap:butt;stroke-linejoin:miter;stroke-miterlimit:10;stroke-dasharray:none;stroke-opacity:1"
         id="path22801" /><path
         d="m 18945,10881 68,-11 109,-104 v 424 l -143,-111 -161,-120 -182,-130 -205,-139 -232,-152 -261,-165 -295,-180 -334,-197 -378,-216 -429,-239 -489,-265 893,-263 25,17 378,254 334,232 112,80 112,80 111,82 111,81 110,83 18,13 60,46 60,46 60,46 56,44 56,44 55,45 55,45 55,45 55,46 54,46 55,46 54,46 53,47 z"
         style="fill:#dc9501;fill-opacity:1;fill-rule:evenodd;stroke:#dc9501;stroke-width:25;stroke-linecap:butt;stroke-linejoin:miter;stroke-miterlimit:10;stroke-dasharray:none;stroke-opacity:1"
         id="path22803" /><path
         d="m 19628,11668 v 0 l -195,-93 -214,-99 v -294 l 1481,-120 v 534 l -1072,72 m 19,9 1053,-70 v 632 l -77,-47 -84,-50 -91,-51 -98,-55 -106,-57 -115,-61 -124,-64 -135,-68 v -4 l -12,-2 -211,-103 v 0 m 223,816 v -669 -6 l 113,58 113,59 113,61 112,62 111,63 110,64 110,65 109,67 -891,176 m 1024,-899 v 696 l -86,17 -55,-35 v -669 l 141,-9 v 0 m 0,-10 -141,9 v -535 l 35,-3 v 0 l 61,69 59,71 57,72 55,74 -126,38 v 205 m -1135,179 -391,-68 220,-14 171,82 m -1485,-512 163,88 161,90 160,92 158,96 -642,-111 v -255 0 m -44,247 -990,-171 v -591 l 249,120 248,122 247,124 246,126 v 0 270 0 m 5120,306 v 1 -1 0 M 10393,6945 h 18898 v 793 0 l -346,174 -344,176 -343,178 -343,180 -341,182 -340,183 -339,186 -339,187 -188,106 -188,108 -188,109 -186,111 -185,112 -185,113 -183,115 -183,117 -112,73 -112,74 -110,75 -110,77 -109,78 -108,79 -107,81 -106,81 -63,51 -60,50 -57,48 -54,47 -51,45 -48,44 -45,43 -43,42 -40,40 -37,40 -35,38 -33,37 -30,36 -29,36 -26,34 -25,34 -22,32 -21,32 -19,31 -17,30 -15,29 -14,29 -13,28 -11,27 -9,26 -8,26 -7,26 -5,24 -4,24 -3,24 -2,23 v 22 14 -1 l -1616,320 v 0 -773 0 l -415,-100 -98,29 v -234 l -50,-9 v 258 l -113,34 -52,-71 -53,-70 -54,-69 -56,-68 h -3 l 282,-23 -75,-136 -90,-149 -108,-162 -38,-53 -58,-81 v 0 -154 l -53,7 v 75 1 l -9,-12 -5,-7 -74,-96 -43,-55 -180,-217 -212,-242 -21,-23 -24,-26 -3,-2 -50,-54 -55,-60 -28,-30 -60,-65 -9,-10 -8,-8 -287,-296 -350,-344 -15,-14 -16,-15 -32,-30 v 0 -169 l -69,19 v 84 0 l -137,-129 -68,-65 -79,-75 -1960,578 -893,263 489,265 429,239 378,216 334,197 295,180 261,165 232,152 205,139 182,130 161,120 143,111 28,-2 v 0 297 l 105,45 105,46 105,47 104,49 -244,16 v 0 l -229,-40 v 0 -444 l -25,15 v 425 l -92,-16 v 0 l -147,-91 -165,-97 -186,-104 -100,-56 -107,-57 v -602 l -44,6 v 572 l -211,-110 -233,-118 -259,-127 -287,-138 v -438 0 l -830,-200 -188,173 v 0 l -6,-3 v 0 -813 l -50,14 v 853 l -34,31 v 0 812 0 l -5412,-937 -43,-8 v 0 l -284,-766 z"
         style="fill:#d1d1d1;fill-opacity:1;fill-rule:evenodd;stroke:#d1d1d1;stroke-width:25;stroke-linecap:butt;stroke-linejoin:miter;stroke-miterlimit:10;stroke-dasharray:none;stroke-opacity:1"
         id="path22805" /><path
         d="m 28822,14593 v -281 l 469,10 v 291 l -469,-20 m -1451,681 1451,162 v 280 l -1451,-194 v -248 m -572,1111 -558,-128 v -223 l 1130,234 v 248 l -572,-131 m -1452,264 894,276 v 222 l -894,-296 v -202 m -366,846 -353,-156 v -184 l 719,300 v 201 l -366,-161 m -706,382 -231,-130 v -169 l 584,313 v 183 l -353,-197 m -552,323 -156,-108 v -156 l 477,318 v 169 l -321,-223 m -1141,609 v -73 l 268,312 v 136 l -268,-321 z"
         style="fill:#a77f41;fill-opacity:1;fill-rule:evenodd;stroke:#a77f41;stroke-width:25;stroke-linecap:butt;stroke-linejoin:miter;stroke-miterlimit:10;stroke-dasharray:none;stroke-opacity:1"
         id="path22807" /><path
         d="m 29291,15163 -752,43 752,-500 v 457 0 m -1152,462 v 261 l -688,54 502,-340 186,25 m 346,46 -259,165 v -199 l 259,34 m -1275,814 -638,57 v 0 l 227,-157 419,96 v 0 l -8,4 m -1296,554 -64,6 26,-19 v 0 z"
         style="fill:#bfbfbf;fill-opacity:1;fill-rule:evenodd;stroke:#bfbfbf;stroke-width:25;stroke-linecap:butt;stroke-linejoin:miter;stroke-miterlimit:10;stroke-dasharray:none;stroke-opacity:1"
         id="path22809" /><path
         d="m 28226,15836 259,-165 197,27 -263,166 -193,15 z"
         style="fill:#cacaca;fill-opacity:1;fill-rule:evenodd;stroke:#cacaca;stroke-width:25;stroke-linecap:butt;stroke-linejoin:miter;stroke-miterlimit:10;stroke-dasharray:none;stroke-opacity:1"
         id="path22811" /><path
         d="m 25347,17455 2792,-321 v 78 l -303,141 -2489,303 v -201 m -719,436 422,-48 v 182 l -422,49 v -183 m 502,-57 2206,-246 -479,225 h 1 l -1728,203 v 0 -182 0 m 2282,-255 600,-67 v 166 l -1079,126 h -1 l 480,-225 v 0 m 1401,-345 -587,72 v -107 0 l 215,-100 h -1 l 373,-43 v 178 m -674,82 -223,28 v -1 l 223,-104 v 77 0 m 87,-192 136,-16 -136,64 v -48 0 m -1698,1026 -426,47 v 0 l 435,-206 v 0 l 791,-84 v 155 l -800,88 m -1398,-11 1335,-141 v 1 l -436,206 v 0 l -899,99 v 0 -165 0 m -80,173 -1006,111 v -169 l 1007,-106 h -1 v 164 m 1,256 -600,60 v 0 l -327,-122 v 0 l 926,-89 v 0 151 h 1 m 79,-159 590,-57 v 1 l -393,188 v -1 l -197,20 v -151 0 m 660,-64 951,-92 v 146 l -1344,134 h 1 l 393,-188 h -1 m -117,400 -543,48 v 0 -131 l 21,-10 v 0 l 1084,-94 v 137 l -562,50 m -635,-84 12,10 v 2 l -208,101 -192,-72 v 0 l -7,-6 v -1 l 395,-34 v 0 m -164,125 176,-86 v 101 l -110,9 -66,-24 m 541,201 -285,-106 v 0 -3 l 668,-50 v 130 l -383,29 v 0 m -1983,152 -582,45 v -136 l 451,-34 131,59 v 66 0 m 128,-10 -59,5 v 0 -31 l 59,26 v 0 m 286,128 v 6 l -345,175 v -250 0 l 167,-10 v 0 l 178,79 v 0 m -1167,-18 753,-47 v 0 126 h 1 l -659,42 v 0 l -96,-121 h 1 m 1167,51 36,-17 33,14 v 0 l -69,5 v 0 -2 0 m 2395,-2365 1898,-215 v 206 l -1898,231 v -222 m 1985,-225 1065,-120 v 98 0 l -287,133 -778,94 v -205 0 m 857,101 208,-97 v 72 l -208,25 m -857,-622 1065,-110 v 227 l -1065,122 v -239 0 m -855,89 769,-80 h -1 v 240 h 1 l -769,88 v -248 m 1451,-832 469,-37 v 273 l -469,44 z"
         style="fill:#be8d41;fill-opacity:1;fill-rule:evenodd;stroke:#be8d41;stroke-width:25;stroke-linecap:butt;stroke-linejoin:miter;stroke-miterlimit:10;stroke-dasharray:none;stroke-opacity:1"
         id="path22813" /><path
         d="m 10393,21118 v -2472 0 l 271,-56 13,-41 5455,-1111 v 955 0 l 278,301 830,-236 v 0 -1246 h 1 l 1378,-280 v 0 l 4046,1799 -83,5 v 73 l -221,10 221,299 268,337 47,56 139,164 17,20 121,144 46,51 281,315 11,12 55,61 477,509 324,331 H 10393 m 13330,-2918 -352,27 v 0 l -1637,-610 -2293,-853 h 1 l 428,-87 v -863 l 742,170 v 29 l 67,16 73,-12 142,32 v 0 1102 0 l 425,151 415,-118 v 0 -910 l 8,2 87,20 75,-15 1316,302 v 0 38 -1 l 114,27 16,-15 v 34 26 l 2,26 2,26 4,27 5,28 6,29 8,29 9,30 10,30 11,32 13,32 14,33 16,34 17,34 20,36 20,36 23,38 24,38 26,39 28,41 30,41 32,43 35,43 36,45 39,46 41,48 44,48 46,50 49,52 52,53 54,54 58,56 v 0 l -435,36 -122,11 v 156 z"
         style="fill:#a8d2ca;fill-opacity:1;fill-rule:evenodd;stroke:#a8d2ca;stroke-width:25;stroke-linecap:butt;stroke-linejoin:miter;stroke-miterlimit:10;stroke-dasharray:none;stroke-opacity:1"
         id="path22815" /><path
         d="m 19870,14276 v -1599 0 l 742,-28 v 1651 0 l -742,-24 v 0 m 0,802 v -753 0 l 742,28 v 825 0 l -742,-100 v 0 m 0,-2407 v -111 l 742,-141 v 0 224 0 l -742,28 m 1024,-269 v 231 -1 l -142,6 v 0 -245 l 101,-19 v 0 l 41,28 v 0 m 0,237 v 1669 l -142,-4 v -1660 l 142,-5 v 0 m 0,1725 v 852 0 l -142,-19 v 0 -839 0 l 142,6 v 0 m -141,1163 141,-17 v 0 539 0 l -142,-32 v -1 -489 h 1 m -141,457 -742,-170 v -177 0 l 742,-92 v 0 439 0 m -742,-557 v -193 0 l 733,114 v 0 l -733,79 v 0 m 3350,-1045 -1316,-42 v -2165 l 1316,-249 v 0 2456 0 m 0,70 v 2131 0 l -1316,-302 v 0 -1879 l 1316,50 m -3301,-4477 237,-251 v 0 l 21,23 212,242 180,217 43,55 v 0 78 l -325,141 v 0 l -368,-335 v 0 -170 m 462,594 -22,-21 v 0 l 253,-106 v 0 105 0 l -232,22 h 1 m -462,44 v -402 l 322,289 h -1 l -242,105 h 1 l -80,8 m 892,-85 -58,5 v -86 0 l 58,81 v 0 m -679,-830 -136,145 v -105 0 l 133,-42 v 0 l 3,2 v 0 m -213,225 v -161 0 l 17,-5 v 0 140 l 9,-1 v 0 l -26,27 m 0,-454 8,8 9,10 v 0 59 l -17,5 v -82 0 m 3134,10226 145,-76 v 0 l 22,11 v 260 0 l -46,-51 -121,-144 v 0 m 118,-89 -135,69 v 0 l -139,-164 v 0 l 77,-4 v 0 l 197,99 v 0 m 49,-40 -130,-65 v 0 l 130,-6 z"
         style="fill:#aed7e3;fill-opacity:0.498039;fill-rule:evenodd;stroke:#aed7e3;stroke-width:25;stroke-linecap:butt;stroke-linejoin:miter;stroke-miterlimit:10;stroke-dasharray:none;stroke-opacity:0.498039"
         id="path22817" /><path
         d="m 29291,21118 h -1261 -1 l -4837,-2152 -35,-16 -6433,-2861 v -229 l 12567,4969 v 289 m -8612,-5581 -67,8 -742,92 -2596,320 v 0 l -34,-12 v -198 h 1 l 3917,-430 v 160 l -264,33 -141,17 -74,10 m -862,-443 1077,148 v 75 l -291,31 v 0 l -733,-114 -53,-8 v -132 m 102,-5332 -235,69 -28,-62 280,-86 v 74 0 l -17,5 m 210,-66 -133,42 v 0 -74 l 79,-27 z"
         style="fill:#be8d41;fill-opacity:1;fill-rule:evenodd;stroke:#be8d41;stroke-width:25;stroke-linecap:butt;stroke-linejoin:miter;stroke-miterlimit:10;stroke-dasharray:none;stroke-opacity:1"
         id="path22819" /><path
         d="m 25130,18881 285,106 5,2 3871,1440 v 400 l -12567,-4969 222,-25 8184,3046 m -7890,-3172 2630,-282 733,-79 442,-48 113,17 -3917,430 h -1 v -38 m 3654,-467 -1077,-148 53,-5 v 0 -11 0 l 742,100 140,19 142,19 v 0 26 m -958,-5559 -280,86 v -138 l 280,-85 v 43 94 m 60,-19 v -80 -32 0 l 28,30 51,55 z"
         style="fill:#a77f41;fill-opacity:1;fill-rule:evenodd;stroke:#a77f41;stroke-width:25;stroke-linecap:butt;stroke-linejoin:miter;stroke-miterlimit:10;stroke-dasharray:none;stroke-opacity:1"
         id="path22821" /><path
         d="m 21045,15300 -151,17 v -101 -852 -51 -1674 0 l 327,-13 v -1346 l 98,-29 v -1 6052 0 l -425,-151 v 0 -1102 -539 0 l 264,-33 v -160 l -113,-17 m -4635,-3368 v 6762 0 l -278,-301 v 0 -955 -6303 -812 0 l 34,-31 v 1578 l 244,62 v 0 m 0,-1575 v 1553 l -194,-46 v -1593 0 l 194,85 v 1 m 0,-289 v 257 l -188,-84 v 0 l 188,-173 v 0 m 4484,2222 v -696 0 l 277,-18 v 0 1003 l -56,-49 -64,-52 -74,-55 -83,-59 v -22 -52 m 0,343 v -231 0 l 72,51 71,53 68,57 66,59 -277,10 v 1 m 0,-1049 v -205 0 l 126,-38 v 0 l 39,55 38,56 38,56 36,57 -277,19 m 164,-255 113,-34 v 199 l -56,-83 z"
         style="fill:#bfbfbf;fill-opacity:1;fill-rule:evenodd;stroke:#bfbfbf;stroke-width:25;stroke-linecap:butt;stroke-linejoin:miter;stroke-miterlimit:10;stroke-dasharray:none;stroke-opacity:1"
         id="path22823" /><path
         d="m 16410,18694 v -6762 0 l 442,114 388,103 v 3560 38 198 l -294,-110 -222,25 v 229 l 516,230 v 893 1246 0 l -830,236 v 0 m 4909,-1392 v -6052 1 l 415,100 v 0 856 2128 4 57 1846 942 0 l -415,118 v 0 m -4909,-5392 v -1553 -1 l 209,93 208,94 207,96 206,97 v 1388 l -207,-56 -207,-54 -208,-53 -208,-51 m 0,-1585 v -257 0 l 830,200 v 0 438 l -188,-88 -200,-93 -214,-98 z"
         style="fill:#cacaca;fill-opacity:1;fill-rule:evenodd;stroke:#cacaca;stroke-width:25;stroke-linecap:butt;stroke-linejoin:miter;stroke-miterlimit:10;stroke-dasharray:none;stroke-opacity:1"
         id="path22825" /><path
         d="m 25070,14729 v -4654 l 183,-117 183,-115 185,-113 185,-112 186,-111 188,-109 188,-108 188,-106 v 5702 l -372,-36 -371,-38 -372,-40 -371,-43 m 0,0 -437,-53 -437,-56 v -3927 l 106,-81 107,-81 108,-79 109,-78 110,-77 110,-75 112,-74 112,-73 z"
         style="fill:#ca3e3e;fill-opacity:1;fill-rule:evenodd;stroke:#ca3e3e;stroke-width:25;stroke-linecap:butt;stroke-linejoin:miter;stroke-miterlimit:10;stroke-dasharray:none;stroke-opacity:1"
         id="path22827" /><path
         d="m 16410,11932 -244,-62 50,-6 194,46 208,51 208,53 207,54 207,56 249,69 247,72 247,73 247,76 39,13 -39,2 -211,-62 -233,-68 -259,-72 -287,-78 -388,-103 -442,-114 m 2661,760 25,9 -25,7 -168,-61 -193,-66 -223,-73 -257,-79 39,-2 202,64 200,65 201,68 199,68 m 2100,-113 50,47 -50,-4 v 0 l -66,-59 -68,-57 -71,-53 -72,-51 -41,-28 -30,-19 -62,-38 -122,-75 -123,-73 -124,-71 -125,-70 -126,-69 -126,-67 -128,-65 -128,-64 -171,-82 -19,-9 -104,-49 -105,-47 -105,-46 -105,-45 69,-9 214,99 195,93 19,9 211,103 12,6 135,68 124,64 115,61 106,57 98,55 91,51 84,50 77,47 53,33 55,35 60,40 26,17 83,59 74,55 64,52 56,49 m -559,64 140,-5 142,-6 277,-10 v 0 l 50,4 -327,13 -142,5 -140,5 -742,28 -799,31 25,-7 774,-30 742,-28 m -3372,-1907 -254,-119 -256,-118 -257,-115 -257,-113 v 0 -25 0 l 6,-5 v 0 l 188,84 228,102 214,98 200,93 188,88 287,138 259,127 233,118 211,110 44,24 -44,5 v 0 l -246,-126 -247,-124 -248,-122 -249,-120 m 1676,881 -158,-96 -160,-92 -161,-90 -163,-88 v 0 -28 l 107,57 100,56 186,104 165,97 147,91 92,59 25,16 -25,12 -155,-98 m 180,96 v -10 l 473,-31 19,9 -492,32 v 1 -1 m 532,-45 1072,-72 v 11 0 l -1053,70 v 0 l -19,-9 v 0 m 1543,-103 v 11 l -418,27 v -10 l 418,-28 v 0 m 0,-71 50,78 -50,-7 v 0 l -36,-57 -38,-56 -38,-56 -39,-55 -63,-84 -66,-82 -68,-80 -70,-78 v -71 l 45,52 45,53 56,68 54,69 53,70 52,71 57,82 56,83 m -1342,-1427 90,78 368,335 72,68 22,21 82,77 81,78 79,81 77,82 53,59 -53,12 -93,-98 -94,-97 -96,-95 -97,-93 -7,-7 -72,-68 -322,-289 -125,-107 -28,-24 -135,-114 -136,-113 -137,-112 -139,-111 v 0 -71 l 147,119 147,121 145,122 144,123 z"
         style="fill:#feb825;fill-opacity:1;fill-rule:evenodd;stroke:#feb825;stroke-width:25;stroke-linecap:butt;stroke-linejoin:miter;stroke-miterlimit:10;stroke-dasharray:none;stroke-opacity:1"
         id="path22829" /><path
         d="m 16836,10170 321,-261"
         style="fill:none;stroke:#f9f9f9;stroke-width:12;stroke-linecap:butt;stroke-linejoin:miter;stroke-miterlimit:10;stroke-dasharray:none;stroke-opacity:1"
         id="path22831" /><path
         d="M 20029,9586 24744,6945"
         style="fill:none;stroke:#f9f9f9;stroke-width:12;stroke-linecap:butt;stroke-linejoin:miter;stroke-miterlimit:10;stroke-dasharray:none;stroke-opacity:1"
         id="path22833" /><path
         d="m 18450,11318 541,-231"
         style="fill:none;stroke:#f9f9f9;stroke-width:12;stroke-linecap:butt;stroke-linejoin:miter;stroke-miterlimit:10;stroke-dasharray:none;stroke-opacity:1"
         id="path22835" /><path
         d="M 18912,8479 20795,6945"
         style="fill:none;stroke:#f9f9f9;stroke-width:12;stroke-linecap:butt;stroke-linejoin:miter;stroke-miterlimit:10;stroke-dasharray:none;stroke-opacity:1"
         id="path22837" /><path
         d="m 17665,10911 595,-333"
         style="fill:none;stroke:#f9f9f9;stroke-width:12;stroke-linecap:butt;stroke-linejoin:miter;stroke-miterlimit:10;stroke-dasharray:none;stroke-opacity:1"
         id="path22839" /><path
         d="m 17240,11149 397,-222"
         style="fill:none;stroke:#f9f9f9;stroke-width:12;stroke-linecap:butt;stroke-linejoin:miter;stroke-miterlimit:10;stroke-dasharray:none;stroke-opacity:1"
         id="path22841" /><path
         d="M 20754,10335 28692,6945"
         style="fill:none;stroke:#f9f9f9;stroke-width:12;stroke-linecap:butt;stroke-linejoin:miter;stroke-miterlimit:10;stroke-dasharray:none;stroke-opacity:1"
         id="path22843" /><path
         d="m 19341,11532 1359,-468"
         style="fill:none;stroke:#f9f9f9;stroke-width:12;stroke-linecap:butt;stroke-linejoin:miter;stroke-miterlimit:10;stroke-dasharray:none;stroke-opacity:1"
         id="path22845" /><path
         d="m 20645,12340 -775,-108"
         style="fill:none;stroke:#f9f9f9;stroke-width:12;stroke-linecap:butt;stroke-linejoin:miter;stroke-miterlimit:10;stroke-dasharray:none;stroke-opacity:1"
         id="path22847" /><path
         d="m 20434,12119 -564,-87"
         style="fill:none;stroke:#f9f9f9;stroke-width:12;stroke-linecap:butt;stroke-linejoin:miter;stroke-miterlimit:10;stroke-dasharray:none;stroke-opacity:1"
         id="path22849" /><path
         d="m 20700,12160 -178,-27"
         style="fill:none;stroke:#f9f9f9;stroke-width:12;stroke-linecap:butt;stroke-linejoin:miter;stroke-miterlimit:10;stroke-dasharray:none;stroke-opacity:1"
         id="path22851" /><path
         d="m 16132,11135 -5455,-945"
         style="fill:none;stroke:#f9f9f9;stroke-width:12;stroke-linecap:butt;stroke-linejoin:miter;stroke-miterlimit:10;stroke-dasharray:none;stroke-opacity:1"
         id="path22853" /><path
         d="m 18230,11498 -989,-171"
         style="fill:none;stroke:#f9f9f9;stroke-width:12;stroke-linecap:butt;stroke-linejoin:miter;stroke-miterlimit:10;stroke-dasharray:none;stroke-opacity:1"
         id="path22855" /><path
         d="m 19071,11644 -92,-16"
         style="fill:none;stroke:#f9f9f9;stroke-width:12;stroke-linecap:butt;stroke-linejoin:miter;stroke-miterlimit:10;stroke-dasharray:none;stroke-opacity:1"
         id="path22857" /><path
         d="m 20700,11926 -842,-146"
         style="fill:none;stroke:#f9f9f9;stroke-width:12;stroke-linecap:butt;stroke-linejoin:miter;stroke-miterlimit:10;stroke-dasharray:none;stroke-opacity:1"
         id="path22859" /><path
         d="M 16132,10721 10404,9587"
         style="fill:none;stroke:#f9f9f9;stroke-width:12;stroke-linecap:butt;stroke-linejoin:miter;stroke-miterlimit:10;stroke-dasharray:none;stroke-opacity:1"
         id="path22861" /><path
         d="m 17943,11079 -703,-139"
         style="fill:none;stroke:#f9f9f9;stroke-width:12;stroke-linecap:butt;stroke-linejoin:miter;stroke-miterlimit:10;stroke-dasharray:none;stroke-opacity:1"
         id="path22863" /><path
         d="m 19071,11303 -797,-158"
         style="fill:none;stroke:#f9f9f9;stroke-width:12;stroke-linecap:butt;stroke-linejoin:miter;stroke-miterlimit:10;stroke-dasharray:none;stroke-opacity:1"
         id="path22865" /><path
         d="m 20592,11604 -1373,-272"
         style="fill:none;stroke:#f9f9f9;stroke-width:12;stroke-linecap:butt;stroke-linejoin:miter;stroke-miterlimit:10;stroke-dasharray:none;stroke-opacity:1"
         id="path22867" /><path
         d="m 20700,11625 -68,-13"
         style="fill:none;stroke:#f9f9f9;stroke-width:12;stroke-linecap:butt;stroke-linejoin:miter;stroke-miterlimit:10;stroke-dasharray:none;stroke-opacity:1"
         id="path22869" /><path
         d="m 22516,11984 -782,-154"
         style="fill:none;stroke:#f9f9f9;stroke-width:12;stroke-linecap:butt;stroke-linejoin:miter;stroke-miterlimit:10;stroke-dasharray:none;stroke-opacity:1"
         id="path22871" /><path
         d="m 23277,11819 -1543,-356"
         style="fill:none;stroke:#f9f9f9;stroke-width:12;stroke-linecap:butt;stroke-linejoin:miter;stroke-miterlimit:10;stroke-dasharray:none;stroke-opacity:1"
         id="path22873" /><path
         d="m 20700,11224 -518,-120"
         style="fill:none;stroke:#f9f9f9;stroke-width:12;stroke-linecap:butt;stroke-linejoin:miter;stroke-miterlimit:10;stroke-dasharray:none;stroke-opacity:1"
         id="path22875" /><path
         d="m 20981,11289 -227,-53"
         style="fill:none;stroke:#f9f9f9;stroke-width:12;stroke-linecap:butt;stroke-linejoin:miter;stroke-miterlimit:10;stroke-dasharray:none;stroke-opacity:1"
         id="path22877" /><path
         d="m 18230,10653 -989,-228"
         style="fill:none;stroke:#f9f9f9;stroke-width:12;stroke-linecap:butt;stroke-linejoin:miter;stroke-miterlimit:10;stroke-dasharray:none;stroke-opacity:1"
         id="path22879" /><path
         d="m 18454,10705 -180,-41"
         style="fill:none;stroke:#f9f9f9;stroke-width:12;stroke-linecap:butt;stroke-linejoin:miter;stroke-miterlimit:10;stroke-dasharray:none;stroke-opacity:1"
         id="path22881" /><path
         d="M 16166,10177 10393,8844"
         style="fill:none;stroke:#f9f9f9;stroke-width:12;stroke-linecap:butt;stroke-linejoin:miter;stroke-miterlimit:10;stroke-dasharray:none;stroke-opacity:1"
         id="path22883" /><path
         d="m 23457,11426 -2507,-695"
         style="fill:none;stroke:#f9f9f9;stroke-width:12;stroke-linecap:butt;stroke-linejoin:miter;stroke-miterlimit:10;stroke-dasharray:none;stroke-opacity:1"
         id="path22885" /><path
         d="M 16345,9455 10393,7805"
         style="fill:none;stroke:#f9f9f9;stroke-width:12;stroke-linecap:butt;stroke-linejoin:miter;stroke-miterlimit:10;stroke-dasharray:none;stroke-opacity:1"
         id="path22887" /><path
         d="M 23899,10927 20029,9586"
         style="fill:none;stroke:#f9f9f9;stroke-width:12;stroke-linecap:butt;stroke-linejoin:miter;stroke-miterlimit:10;stroke-dasharray:none;stroke-opacity:1"
         id="path22889" /><path
         d="M 17700,8779 12407,6945"
         style="fill:none;stroke:#f9f9f9;stroke-width:12;stroke-linecap:butt;stroke-linejoin:miter;stroke-miterlimit:10;stroke-dasharray:none;stroke-opacity:1"
         id="path22891" /><path
         d="M 24687,10255 17525,6945"
         style="fill:none;stroke:#f9f9f9;stroke-width:12;stroke-linecap:butt;stroke-linejoin:miter;stroke-miterlimit:10;stroke-dasharray:none;stroke-opacity:1"
         id="path22893" /><path
         d="M 26117,9355 22644,6945"
         style="fill:none;stroke:#f9f9f9;stroke-width:12;stroke-linecap:butt;stroke-linejoin:miter;stroke-miterlimit:10;stroke-dasharray:none;stroke-opacity:1"
         id="path22895" /><path
         d="M 28579,8080 27762,6945"
         style="fill:none;stroke:#f9f9f9;stroke-width:12;stroke-linecap:butt;stroke-linejoin:miter;stroke-miterlimit:10;stroke-dasharray:none;stroke-opacity:1"
         id="path22897" /><path
         d="m 12496,10505 402,-3560"
         style="fill:none;stroke:#f9f9f9;stroke-width:12;stroke-linecap:butt;stroke-linejoin:miter;stroke-miterlimit:10;stroke-dasharray:none;stroke-opacity:1"
         id="path22899" /><path
         d="M 14256,10810 16847,6945"
         style="fill:none;stroke:#f9f9f9;stroke-width:12;stroke-linecap:butt;stroke-linejoin:miter;stroke-miterlimit:10;stroke-dasharray:none;stroke-opacity:1"
         id="path22901" /><path
         d="m 21734,11630 1942,-484"
         style="fill:none;stroke:#f9f9f9;stroke-width:12;stroke-linecap:butt;stroke-linejoin:miter;stroke-miterlimit:10;stroke-dasharray:none;stroke-opacity:1"
         id="path22903" /><path
         d="m 20273,11994 427,-106"
         style="fill:none;stroke:#f9f9f9;stroke-width:12;stroke-linecap:butt;stroke-linejoin:miter;stroke-miterlimit:10;stroke-dasharray:none;stroke-opacity:1"
         id="path22905" /><path
         d="m 19870,12094 356,-88"
         style="fill:none;stroke:#f9f9f9;stroke-width:12;stroke-linecap:butt;stroke-linejoin:miter;stroke-miterlimit:10;stroke-dasharray:none;stroke-opacity:1"
         id="path22907" /><path
         d="m 21734,11923 1652,-362"
         style="fill:none;stroke:#f9f9f9;stroke-width:12;stroke-linecap:butt;stroke-linejoin:miter;stroke-miterlimit:10;stroke-dasharray:none;stroke-opacity:1"
         id="path22909" /><path
         d="m 20591,12173 109,-24"
         style="fill:none;stroke:#f9f9f9;stroke-width:12;stroke-linecap:butt;stroke-linejoin:miter;stroke-miterlimit:10;stroke-dasharray:none;stroke-opacity:1"
         id="path22911" /><path
         d="m 19870,12331 676,-148"
         style="fill:none;stroke:#f9f9f9;stroke-width:12;stroke-linecap:butt;stroke-linejoin:miter;stroke-miterlimit:10;stroke-dasharray:none;stroke-opacity:1"
         id="path22913" /><path
         d="M 21072,10935 27142,8842"
         style="fill:none;stroke:#f9f9f9;stroke-width:12;stroke-linecap:butt;stroke-linejoin:miter;stroke-miterlimit:10;stroke-dasharray:none;stroke-opacity:1"
         id="path22915" /><path
         d="m 20456,11613 244,-71"
         style="fill:none;stroke:#f9f9f9;stroke-width:12;stroke-linecap:butt;stroke-linejoin:miter;stroke-miterlimit:10;stroke-dasharray:none;stroke-opacity:1"
         id="path22917" /><path
         d="m 19870,11782 538,-156"
         style="fill:none;stroke:#f9f9f9;stroke-width:12;stroke-linecap:butt;stroke-linejoin:miter;stroke-miterlimit:10;stroke-dasharray:none;stroke-opacity:1"
         id="path22919" /><path
         d="m 21530,11302 2845,-823"
         style="fill:none;stroke:#f9f9f9;stroke-width:12;stroke-linecap:butt;stroke-linejoin:miter;stroke-miterlimit:10;stroke-dasharray:none;stroke-opacity:1"
         id="path22921" /><path
         d="m 18274,11393 147,-62"
         style="fill:none;stroke:#f9f9f9;stroke-width:12;stroke-linecap:butt;stroke-linejoin:miter;stroke-miterlimit:10;stroke-dasharray:none;stroke-opacity:1"
         id="path22923" /><path
         d="m 19096,11617 196,-68"
         style="fill:none;stroke:#f9f9f9;stroke-width:12;stroke-linecap:butt;stroke-linejoin:miter;stroke-miterlimit:10;stroke-dasharray:none;stroke-opacity:1"
         id="path22925" /><path
         d="m 20894,12190 -141,-22"
         style="fill:none;stroke:#f9f9f9;stroke-width:12;stroke-linecap:butt;stroke-linejoin:miter;stroke-miterlimit:10;stroke-dasharray:none;stroke-opacity:1"
         id="path22927" /><path
         d="m 20894,11960 -141,-25"
         style="fill:none;stroke:#f9f9f9;stroke-width:12;stroke-linecap:butt;stroke-linejoin:miter;stroke-miterlimit:10;stroke-dasharray:none;stroke-opacity:1"
         id="path22929" /><path
         d="m 19738,11759 -370,-64"
         style="fill:none;stroke:#f9f9f9;stroke-width:12;stroke-linecap:butt;stroke-linejoin:miter;stroke-miterlimit:10;stroke-dasharray:none;stroke-opacity:1"
         id="path22931" /><path
         d="m 19325,11688 -229,-40"
         style="fill:none;stroke:#f9f9f9;stroke-width:12;stroke-linecap:butt;stroke-linejoin:miter;stroke-miterlimit:10;stroke-dasharray:none;stroke-opacity:1"
         id="path22933" /><path
         d="m 18917,11617 -643,-111"
         style="fill:none;stroke:#f9f9f9;stroke-width:12;stroke-linecap:butt;stroke-linejoin:miter;stroke-miterlimit:10;stroke-dasharray:none;stroke-opacity:1"
         id="path22935" /><path
         d="m 20894,11663 -141,-27"
         style="fill:none;stroke:#f9f9f9;stroke-width:12;stroke-linecap:butt;stroke-linejoin:miter;stroke-miterlimit:10;stroke-dasharray:none;stroke-opacity:1"
         id="path22937" /><path
         d="m 19150,11318 -54,-10"
         style="fill:none;stroke:#f9f9f9;stroke-width:12;stroke-linecap:butt;stroke-linejoin:miter;stroke-miterlimit:10;stroke-dasharray:none;stroke-opacity:1"
         id="path22939" /><path
         d="m 18230,11136 -195,-38"
         style="fill:none;stroke:#f9f9f9;stroke-width:12;stroke-linecap:butt;stroke-linejoin:miter;stroke-miterlimit:10;stroke-dasharray:none;stroke-opacity:1"
         id="path22941" /><path
         d="m 19725,11824 25,-7"
         style="fill:none;stroke:#f9f9f9;stroke-width:12;stroke-linecap:butt;stroke-linejoin:miter;stroke-miterlimit:10;stroke-dasharray:none;stroke-opacity:1"
         id="path22943" /><path
         d="m 15648,11139 15,-13"
         style="fill:none;stroke:#f9f9f9;stroke-width:12;stroke-linecap:butt;stroke-linejoin:miter;stroke-miterlimit:10;stroke-dasharray:none;stroke-opacity:1"
         id="path22945" /><path
         d="m 15736,11066 396,-322"
         style="fill:none;stroke:#f9f9f9;stroke-width:12;stroke-linecap:butt;stroke-linejoin:miter;stroke-miterlimit:10;stroke-dasharray:none;stroke-opacity:1"
         id="path22947" /><path
         d="m 18087,11473 143,-61"
         style="fill:none;stroke:#f9f9f9;stroke-width:12;stroke-linecap:butt;stroke-linejoin:miter;stroke-miterlimit:10;stroke-dasharray:none;stroke-opacity:1"
         id="path22949" /><path
         d="m 20690,10362 10,-5"
         style="fill:none;stroke:#f9f9f9;stroke-width:12;stroke-linecap:butt;stroke-linejoin:miter;stroke-miterlimit:10;stroke-dasharray:none;stroke-opacity:1"
         id="path22951" /><path
         d="m 19035,11638 36,-13"
         style="fill:none;stroke:#f9f9f9;stroke-width:12;stroke-linecap:butt;stroke-linejoin:miter;stroke-miterlimit:10;stroke-dasharray:none;stroke-opacity:1"
         id="path22953" /><path
         d="m 20206,12438 -336,-42"
         style="fill:none;stroke:#f9f9f9;stroke-width:12;stroke-linecap:butt;stroke-linejoin:miter;stroke-miterlimit:10;stroke-dasharray:none;stroke-opacity:1"
         id="path22955" /><path
         d="m 21785,12114 -51,-9"
         style="fill:none;stroke:#f9f9f9;stroke-width:12;stroke-linecap:butt;stroke-linejoin:miter;stroke-miterlimit:10;stroke-dasharray:none;stroke-opacity:1"
         id="path22957" /><path
         d="m 21101,11316 -58,-13"
         style="fill:none;stroke:#f9f9f9;stroke-width:12;stroke-linecap:butt;stroke-linejoin:miter;stroke-miterlimit:10;stroke-dasharray:none;stroke-opacity:1"
         id="path22959" /><path
         d="m 16266,10200 -50,-12"
         style="fill:none;stroke:#f9f9f9;stroke-width:12;stroke-linecap:butt;stroke-linejoin:miter;stroke-miterlimit:10;stroke-dasharray:none;stroke-opacity:1"
         id="path22961" /><path
         d="m 18898,11685 24,-8"
         style="fill:none;stroke:#f9f9f9;stroke-width:12;stroke-linecap:butt;stroke-linejoin:miter;stroke-miterlimit:10;stroke-dasharray:none;stroke-opacity:1"
         id="path22963" /><path
         d="m 17960,11527 22,-9"
         style="fill:none;stroke:#f9f9f9;stroke-width:12;stroke-linecap:butt;stroke-linejoin:miter;stroke-miterlimit:10;stroke-dasharray:none;stroke-opacity:1"
         id="path22965" /><path
         d="m 12484,10607 2,-17"
         style="fill:none;stroke:#f9f9f9;stroke-width:12;stroke-linecap:butt;stroke-linejoin:miter;stroke-miterlimit:10;stroke-dasharray:none;stroke-opacity:1"
         id="path22967" /><path
         d="m 14199,10895 10,-14"
         style="fill:none;stroke:#f9f9f9;stroke-width:12;stroke-linecap:butt;stroke-linejoin:miter;stroke-miterlimit:10;stroke-dasharray:none;stroke-opacity:1"
         id="path22969" /><path
         d="m 20753,11874 141,-35"
         style="fill:none;stroke:#f9f9f9;stroke-width:12;stroke-linecap:butt;stroke-linejoin:miter;stroke-miterlimit:10;stroke-dasharray:none;stroke-opacity:1"
         id="path22971" /><path
         d="m 20753,11527 141,-41"
         style="fill:none;stroke:#f9f9f9;stroke-width:12;stroke-linecap:butt;stroke-linejoin:miter;stroke-miterlimit:10;stroke-dasharray:none;stroke-opacity:1"
         id="path22973" /><path
         d="m 24197,11030 -9,-3"
         style="fill:none;stroke:#f9f9f9;stroke-width:12;stroke-linecap:butt;stroke-linejoin:miter;stroke-miterlimit:10;stroke-dasharray:none;stroke-opacity:1"
         id="path22975" /><path
         d="m 24196,11631 -8,-3"
         style="fill:none;stroke:#f9f9f9;stroke-width:12;stroke-linecap:butt;stroke-linejoin:miter;stroke-miterlimit:10;stroke-dasharray:none;stroke-opacity:1"
         id="path22977" /><path
         d="m 20753,12137 141,-31"
         style="fill:none;stroke:#f9f9f9;stroke-width:12;stroke-linecap:butt;stroke-linejoin:miter;stroke-miterlimit:10;stroke-dasharray:none;stroke-opacity:1"
         id="path22979" /><path
         d="m 24188,11018 9,-2"
         style="fill:none;stroke:#f9f9f9;stroke-width:12;stroke-linecap:butt;stroke-linejoin:miter;stroke-miterlimit:10;stroke-dasharray:none;stroke-opacity:1"
         id="path22981" /><path
         d="m 24188,11386 8,-2"
         style="fill:none;stroke:#f9f9f9;stroke-width:12;stroke-linecap:butt;stroke-linejoin:miter;stroke-miterlimit:10;stroke-dasharray:none;stroke-opacity:1"
         id="path22983" /></g></g></svg>
