<?xml version="1.0" encoding="UTF-8" standalone="no"?>
<!-- Created with Inkscape (http://www.inkscape.org/) -->

<svg
   width="50mm"
   height="40mm"
   viewBox="0 0 50 40"
   version="1.1"
   id="svg5"
   xml:space="preserve"
   inkscape:version="1.2.1 (9c6d41e410, 2022-07-14)"
   sodipodi:docname="u022_304.svg"
   xmlns:inkscape="http://www.inkscape.org/namespaces/inkscape"
   xmlns:sodipodi="http://sodipodi.sourceforge.net/DTD/sodipodi-0.dtd"
   xmlns="http://www.w3.org/2000/svg"
   xmlns:svg="http://www.w3.org/2000/svg"><sodipodi:namedview
     id="namedview7"
     pagecolor="#ffffff"
     bordercolor="#999999"
     borderopacity="1"
     inkscape:showpageshadow="0"
     inkscape:pageopacity="0"
     inkscape:pagecheckerboard="0"
     inkscape:deskcolor="#d1d1d1"
     inkscape:document-units="mm"
     showgrid="false"
     inkscape:zoom="1.6819304"
     inkscape:cx="134.36941"
     inkscape:cy="162.61077"
     inkscape:window-width="1265"
     inkscape:window-height="993"
     inkscape:window-x="0"
     inkscape:window-y="47"
     inkscape:window-maximized="0"
     inkscape:current-layer="layer1" /><defs
     id="defs2"><clipPath
       clipPathUnits="userSpaceOnUse"
       id="clipPath23"><path
         d="M 11333,5522 H 28352 V 22541 H 11333 Z"
         id="path21" /></clipPath><clipPath
       clipPathUnits="userSpaceOnUse"
       id="clipPath22427"><path
         d="M -6,-6 H 39691 V 28069 H -6 Z"
         id="path22425" /></clipPath><clipPath
       clipPathUnits="userSpaceOnUse"
       id="clipPath22793"><path
         d="M -6,-6 H 39691 V 28069 H -6 Z"
         id="path22791" /></clipPath><clipPath
       clipPathUnits="userSpaceOnUse"
       id="clipPath23396"><path
         d="M -6,-6 H 39691 V 28069 H -6 Z"
         id="path23394" /></clipPath><clipPath
       clipPathUnits="userSpaceOnUse"
       id="clipPath23869"><path
         d="M -6,-6 H 39691 V 28069 H -6 Z"
         id="path23867" /></clipPath></defs><g
     inkscape:label="Layer 1"
     inkscape:groupmode="layer"
     id="layer1"><g
       id="g23865"
       clip-path="url(#clipPath23869)"
       transform="matrix(0.00270862,0,0,-0.00281739,-29.372046,59.532859)"><path
         d="m 22501,12062 v 2297 0 l -597,-19 v -2165 l 597,-113 v 0 m -597,4219 v -1879 0 l 597,23 v 0 1993 0 l -597,-137 v 0 m -1152,-265 v -1658 0 l 142,6 v 0 1685 0 l -142,-32 v -1 m 142,-3304 v 1596 l -142,-4 v -1657 0 l 142,65 v 0 m -142,-86 v -233 l 142,-27 v 326 0 z"
         style="fill:#aed7e3;fill-opacity:0.498039;fill-rule:evenodd;stroke:#aed7e3;stroke-width:25;stroke-linecap:butt;stroke-linejoin:miter;stroke-miterlimit:10;stroke-dasharray:none;stroke-opacity:0.498039"
         id="path23871" /><path
         d="m 26335,8634 -321,-266 v 1 l 552,177 v 0 l -231,88 v 0 m 934,139 799,257 v 0 l -394,123 v 1 l -405,-381 v 0 m 1964,1022 -461,-538 v 0 l 519,166 v 358 0 l -58,14 v 0 m -8618,1409 54,197 -35,3 -55,-196 v 0 l 36,-4 m -58,-209 12,42 -36,4 -27,-94 z"
         style="fill:#b2b2b2;fill-opacity:1;fill-rule:evenodd;stroke:#b2b2b2;stroke-width:25;stroke-linecap:butt;stroke-linejoin:miter;stroke-miterlimit:10;stroke-dasharray:none;stroke-opacity:1"
         id="path23873" /><path
         d="m 20492,11361 -40,-139 127,-14 v 0 l 55,196 -78,8 v 0 l -64,-51 m 14,-414 27,94 -129,15 -58,-201 57,-6 z"
         style="fill:#bfbfbf;fill-opacity:1;fill-rule:evenodd;stroke:#bfbfbf;stroke-width:25;stroke-linecap:butt;stroke-linejoin:miter;stroke-miterlimit:10;stroke-dasharray:none;stroke-opacity:1"
         id="path23875" /><path
         d="m 29291,6945 v 1155 l -1984,685 v 0 l -38,-12 v 0 l -373,-352 -330,125 v 0 l -552,-177 v -1 l -417,-344 -409,182 v 0 l -680,-516 -926,473 v 190 l 498,304 v 1 1240 0 l -1579,544 v 1530 0 l -767,152 v 0 -773 0 l -415,-100 -372,112 -53,-51 -131,-124 -552,-520 v -158 l -32,24 v 104 h 1 l -63,-59 -2106,281 v 0 l -770,-424 h -1 v -168 0 l -544,-131 v 0 l -730,-402 -1802,-991 -2797,-1540 -473,-259 h 18397 m -9080,4909 683,-57 v 493 0 l -208,42 v 0 l -475,-261 v 0 -217 m -342,28 310,-26 v 0 197 0 l -310,-171 m 4263,-2002 v -512 0 l 639,291 v 0 l -639,221 m 0,-1191 1244,762 -599,206 -645,-293 v -674 z"
         style="fill:#d1d1d1;fill-opacity:1;fill-rule:evenodd;stroke:#d1d1d1;stroke-width:25;stroke-linecap:butt;stroke-linejoin:miter;stroke-miterlimit:10;stroke-dasharray:none;stroke-opacity:1"
         id="path23877" /><path
         d="m 19751,11557 429,-41 h -1 v 84 l -310,30 -118,-73 m -124,-345 552,-61 v 0 100 l -428,46 -124,-85 v 0 m 825,10 -115,12 v 0 l -110,-89 438,-49 98,92 v 0 l -11,1 v 0 l -300,33 m -960,-378 687,-87 v 119 h 1 l -554,67 -134,-99 m 854,11 -135,17 v -119 l 80,-10 v 0 l 112,106 v 0 l -57,6 m -135,321 78,63 h 1 l -79,8 v -71 0 m 0,336 375,-36 96,77 v 0 l -471,44 v 1 -86 0 m 418,-40 265,-26 v 0 88 0 l -169,15 v 0 l -96,-77 v 0 m 5516,-1717 -1637,-1042 1089,-467 568,453 v 0 l -568,215 v 222 l 1422,959 v 0 l -241,64 -633,-404 m -1637,-1042 1637,1042 -182,56 -1831,-1122 v 0 -487 l -52,-34 v 489 0 l -498,-304 926,-458 521,382 h -1 l -520,231 v 205 m 2511,1382 -1422,-959 1299,-471 603,543 v 0 l -603,189 v 244 l 788,580 v 0 322 0 l -665,-448 m 704,156 v -761 l -39,-35 v 766 0 l -788,-580 1575,-467 597,662 v 0 l -597,147 v 270 l 754,650 v 0 l -493,90 -1008,-742 h -1 m 861,100 -113,-98 820,-189 v 896 l -707,-609 m -860,-100 304,224 -304,68 h -1 v -292 z"
         style="fill:#c4954f;fill-opacity:1;fill-rule:evenodd;stroke:#c4954f;stroke-width:25;stroke-linecap:butt;stroke-linejoin:miter;stroke-miterlimit:10;stroke-dasharray:none;stroke-opacity:1"
         id="path23879" /><path
         d="m 19751,11492 428,-43 v 0 67 h 1 l -429,41 v -65 m 460,-46 297,-29 3,-1 75,60 -375,36 v 0 -66 0 m 683,-68 v 68 0 l -265,26 v 0 l -73,-60 v 0 l 196,-20 142,-14 v 0 m -1268,-181 v -53 l 554,-63 h -1 v 54 l -553,62 m 1039,-101 -438,49 -16,-13 v -54 l 388,-44 66,62 m -486,-339 -687,87 v -70 l 687,-88 v 71 m 32,-4 v -71 0 l 13,-2 67,63 -80,10 m 4817,-2476 160,-71 v 0 l 409,-182 v 222 l -1089,467 v -205 l 520,-231 m -1446,76 v -190 l 926,-473 v 205 l -926,458 m 2984,193 330,-125 v 244 l -1299,471 v -222 l 969,-368 m 1502,484 403,-126 v 270 l -1575,467 v -244 l 1172,-367 m 1165,765 58,-14 v 283 l -820,189 v -270 z"
         style="fill:#be8d41;fill-opacity:1;fill-rule:evenodd;stroke:#be8d41;stroke-width:25;stroke-linecap:butt;stroke-linejoin:miter;stroke-miterlimit:10;stroke-dasharray:none;stroke-opacity:1"
         id="path23881" /><path
         d="m 18796,11289 -749,-414 -29,-16 672,-89 671,456 -565,63 m 1073,340 v 253 l -1051,-580 562,-63 371,253 v 65 l 118,73 z"
         style="fill:#dc9501;fill-opacity:1;fill-rule:evenodd;stroke:#dc9501;stroke-width:25;stroke-linecap:butt;stroke-linejoin:miter;stroke-miterlimit:10;stroke-dasharray:none;stroke-opacity:1"
         id="path23883" /><path
         d="m 20947,11363 372,-112 v -1 6052 l -425,-151 v -1102 -1685 -51 -1601 -346 -643 -345 -66 z"
         style="fill:#bfbfbf;fill-opacity:1;fill-rule:evenodd;stroke:#bfbfbf;stroke-width:25;stroke-linecap:butt;stroke-linejoin:miter;stroke-miterlimit:10;stroke-dasharray:none;stroke-opacity:1"
         id="path23885" /><path
         d="m 21319,17302 v -6052 1 l 415,100 v 0 856 2128 4 57 1846 942 0 l -415,118 v 0 m -4623,-7165 544,131 v 0 5677 l -294,-110 -222,25 v 229 l 516,230 v 2139 0 l -544,154 v 0 z"
         style="fill:#cacaca;fill-opacity:1;fill-rule:evenodd;stroke:#cacaca;stroke-width:25;stroke-linecap:butt;stroke-linejoin:miter;stroke-miterlimit:10;stroke-dasharray:none;stroke-opacity:1"
         id="path23887" /><path
         d="m 24132,11699 3552,2306 v 0 26 l -3604,-2345 52,13 m 3591,2332 1568,1017 v 29 l -1607,-1046 z"
         style="fill:#dc9501;fill-opacity:1;fill-rule:evenodd;stroke:#dc9501;stroke-width:25;stroke-linecap:butt;stroke-linejoin:miter;stroke-miterlimit:10;stroke-dasharray:none;stroke-opacity:1"
         id="path23889" /><path
         d="M 29291,11717 24132,9368"
         style="fill:none;stroke:#dc9501;stroke-width:24;stroke-linecap:butt;stroke-linejoin:miter;stroke-miterlimit:10;stroke-dasharray:none;stroke-opacity:1"
         id="path23891" /><path
         d="m 27684,10980 1607,731"
         style="fill:none;stroke:#dc9501;stroke-width:24;stroke-linecap:butt;stroke-linejoin:miter;stroke-miterlimit:10;stroke-dasharray:none;stroke-opacity:1"
         id="path23893" /><path
         d="m 24080,9340 3604,1640"
         style="fill:none;stroke:#dc9501;stroke-width:24;stroke-linecap:butt;stroke-linejoin:miter;stroke-miterlimit:10;stroke-dasharray:none;stroke-opacity:1"
         id="path23895" /><path
         d="m 20894,12712 -142,-65 -573,-262 32,-11 541,252 142,66 v 20 m -605,-1473 -78,-63 v 0 -44 l 683,555 v 36 h -1 l -604,-484 m -2354,146 2276,-253 -32,19 -2218,246 -26,-12 m 0,1134 2276,-145 -32,11 -2218,141 z"
         style="fill:#feb825;fill-opacity:1;fill-rule:evenodd;stroke:#feb825;stroke-width:25;stroke-linecap:butt;stroke-linejoin:miter;stroke-miterlimit:10;stroke-dasharray:none;stroke-opacity:1"
         id="path23897" /><path
         d="m 20179,11251 v -100 0 l 32,-19 v 1242 l -32,2 v -1125 m 0,-613 v -104 l 32,-24 v 158 14 396 l -31,3 h -1 v -443 m 0,443 h 1 l 31,-3 v 54 l -32,3 v -54 m 3953,-1713 v 2331 l -52,-13 V 9340 l 52,28 v 0 m 0,-4 -52,-24 v -682 -1 -489 l 52,34 v 487 1 674 m 3591,126 v 1508 0 l -39,-18 v 0 -1525 l 39,35 m 0,1514 v 3027 0 h -39 v -3046 1 l 40,18 z"
         style="fill:#fdab01;fill-opacity:1;fill-rule:evenodd;stroke:#fdab01;stroke-width:25;stroke-linecap:butt;stroke-linejoin:miter;stroke-miterlimit:10;stroke-dasharray:none;stroke-opacity:1"
         id="path23899" /><path
         d="m 25188,8206 -160,71 h 1 l -521,-382 v -205 l 680,516 v 0 m 826,162 321,266 v 0 l -170,65 v 0 l -568,-453 v -222 l 417,344 m 1255,405 405,381 v -1 l -175,55 v 0 l -603,-543 v -244 l 373,352 m 1503,484 461,538 v 0 l -165,41 v 0 l -597,-662 v -270 z"
         style="fill:#a77f41;fill-opacity:1;fill-rule:evenodd;stroke:#a77f41;stroke-width:25;stroke-linecap:butt;stroke-linejoin:miter;stroke-miterlimit:10;stroke-dasharray:none;stroke-opacity:1"
         id="path23901" /><path
         d="m 15966,9735 v 5054 l -1802,175 v -46 -6174 z"
         style="fill:#ca3e3e;fill-opacity:1;fill-rule:evenodd;stroke:#ca3e3e;stroke-width:25;stroke-linecap:butt;stroke-linejoin:miter;stroke-miterlimit:10;stroke-dasharray:none;stroke-opacity:1"
         id="path23903" /><path
         d="m 19512,16790 2989,1112 v 1 l 6790,2526 v 400 l -12567,-4969 222,-25 z"
         style="fill:#a77f41;fill-opacity:1;fill-rule:evenodd;stroke:#a77f41;stroke-width:25;stroke-linecap:butt;stroke-linejoin:miter;stroke-miterlimit:10;stroke-dasharray:none;stroke-opacity:1"
         id="path23905" /><path
         d="m 17240,18260 1778,-1151 9011,4009 h 1 -15204 l 3870,-2506 v 0 l 544,-154 v 0 -198 m 5261,-358 -2989,-1112 v 0 l 1179,-763 v 0 l 61,-10 142,32 v 0 1102 0 l 425,151 415,-118 v 0 -942 0 l 9,2 h -1 v 32 0 l 87,20 75,-15 597,137 v 0 z"
         style="fill:#a8d2ca;fill-opacity:1;fill-rule:evenodd;stroke:#a8d2ca;stroke-width:25;stroke-linecap:butt;stroke-linejoin:miter;stroke-miterlimit:10;stroke-dasharray:none;stroke-opacity:1"
         id="path23907" /><path
         d="m 29291,21118 h -1261 -1 L 16724,16089 v -229 l 12567,4969 z"
         style="fill:#be8d41;fill-opacity:1;fill-rule:evenodd;stroke:#be8d41;stroke-width:25;stroke-linecap:butt;stroke-linejoin:miter;stroke-miterlimit:10;stroke-dasharray:none;stroke-opacity:1"
         id="path23909" /><path
         d="m 20894,11723 v 74 l -683,57 v -256 -1 l 471,-44 v 0 l 211,170 h 1 v 0 0 m -715,133 -310,26 v -253 1 l 310,-30 v 256 0 m 715,-169 -169,-138 v 0 l 169,-15 v 0 z"
         style="fill:#dc9501;fill-opacity:1;fill-rule:evenodd;stroke:#dc9501;stroke-width:25;stroke-linecap:butt;stroke-linejoin:miter;stroke-miterlimit:10;stroke-dasharray:none;stroke-opacity:1"
         id="path23911" /><path
         d="m 28131,11189 v -5"
         style="fill:none;stroke:#dc9501;stroke-width:24;stroke-linecap:butt;stroke-linejoin:miter;stroke-miterlimit:10;stroke-dasharray:none;stroke-opacity:1"
         id="path23913" /><path
         d="m 20894,12190 -647,-100"
         style="fill:none;stroke:#f9f9f9;stroke-width:12;stroke-linecap:butt;stroke-linejoin:miter;stroke-miterlimit:10;stroke-dasharray:none;stroke-opacity:1"
         id="path23915" /><path
         d="m 20894,11960 -635,-110"
         style="fill:none;stroke:#f9f9f9;stroke-width:12;stroke-linecap:butt;stroke-linejoin:miter;stroke-miterlimit:10;stroke-dasharray:none;stroke-opacity:1"
         id="path23917" /><path
         d="m 22501,11982 -767,-152"
         style="fill:none;stroke:#f9f9f9;stroke-width:12;stroke-linecap:butt;stroke-linejoin:miter;stroke-miterlimit:10;stroke-dasharray:none;stroke-opacity:1"
         id="path23919" /><path
         d="m 22501,11640 -767,-177"
         style="fill:none;stroke:#f9f9f9;stroke-width:12;stroke-linecap:butt;stroke-linejoin:miter;stroke-miterlimit:10;stroke-dasharray:none;stroke-opacity:1"
         id="path23921" /><path
         d="m 21101,11316 -269,-62"
         style="fill:none;stroke:#f9f9f9;stroke-width:12;stroke-linecap:butt;stroke-linejoin:miter;stroke-miterlimit:10;stroke-dasharray:none;stroke-opacity:1"
         id="path23923" /><path
         d="M 23985,9930 17525,6945"
         style="fill:none;stroke:#f9f9f9;stroke-width:12;stroke-linecap:butt;stroke-linejoin:miter;stroke-miterlimit:10;stroke-dasharray:none;stroke-opacity:1"
         id="path23925" /><path
         d="m 12781,7983 117,-1038"
         style="fill:none;stroke:#f9f9f9;stroke-width:12;stroke-linecap:butt;stroke-linejoin:miter;stroke-miterlimit:10;stroke-dasharray:none;stroke-opacity:1"
         id="path23927" /><path
         d="M 15243,9337 16847,6945"
         style="fill:none;stroke:#f9f9f9;stroke-width:12;stroke-linecap:butt;stroke-linejoin:miter;stroke-miterlimit:10;stroke-dasharray:none;stroke-opacity:1"
         id="path23929" /><path
         d="M 16836,10170 20795,6945"
         style="fill:none;stroke:#f9f9f9;stroke-width:12;stroke-linecap:butt;stroke-linejoin:miter;stroke-miterlimit:10;stroke-dasharray:none;stroke-opacity:1"
         id="path23931" /><path
         d="M 18100,10668 23582,7596"
         style="fill:none;stroke:#f9f9f9;stroke-width:12;stroke-linecap:butt;stroke-linejoin:miter;stroke-miterlimit:10;stroke-dasharray:none;stroke-opacity:1"
         id="path23933" /><path
         d="m 21530,11302 971,-281"
         style="fill:none;stroke:#f9f9f9;stroke-width:12;stroke-linecap:butt;stroke-linejoin:miter;stroke-miterlimit:10;stroke-dasharray:none;stroke-opacity:1"
         id="path23935" /><path
         d="m 20649,11081 1852,-639"
         style="fill:none;stroke:#f9f9f9;stroke-width:12;stroke-linecap:butt;stroke-linejoin:miter;stroke-miterlimit:10;stroke-dasharray:none;stroke-opacity:1"
         id="path23937" /><path
         d="m 21734,11630 767,-191"
         style="fill:none;stroke:#f9f9f9;stroke-width:12;stroke-linecap:butt;stroke-linejoin:miter;stroke-miterlimit:10;stroke-dasharray:none;stroke-opacity:1"
         id="path23939" /><path
         d="m 21734,11923 767,-168"
         style="fill:none;stroke:#f9f9f9;stroke-width:12;stroke-linecap:butt;stroke-linejoin:miter;stroke-miterlimit:10;stroke-dasharray:none;stroke-opacity:1"
         id="path23941" /><path
         d="m 20452,12203 442,-97"
         style="fill:none;stroke:#f9f9f9;stroke-width:12;stroke-linecap:butt;stroke-linejoin:miter;stroke-miterlimit:10;stroke-dasharray:none;stroke-opacity:1"
         id="path23943" /><path
         d="m 18219,10651 -1014,-234"
         style="fill:none;stroke:#f9f9f9;stroke-width:12;stroke-linecap:butt;stroke-linejoin:miter;stroke-miterlimit:10;stroke-dasharray:none;stroke-opacity:1"
         id="path23945" /><path
         d="M 22501,11161 14555,8959"
         style="fill:none;stroke:#f9f9f9;stroke-width:12;stroke-linecap:butt;stroke-linejoin:miter;stroke-miterlimit:10;stroke-dasharray:none;stroke-opacity:1"
         id="path23947" /><path
         d="M 22501,10442 12407,6945"
         style="fill:none;stroke:#f9f9f9;stroke-width:12;stroke-linecap:butt;stroke-linejoin:miter;stroke-miterlimit:10;stroke-dasharray:none;stroke-opacity:1"
         id="path23949" /><path
         d="m 23582,7596 -938,-651"
         style="fill:none;stroke:#f9f9f9;stroke-width:12;stroke-linecap:butt;stroke-linejoin:miter;stroke-miterlimit:10;stroke-dasharray:none;stroke-opacity:1"
         id="path23951" /><path
         d="m 24132,8892 195,-83"
         style="fill:none;stroke:#f9f9f9;stroke-width:12;stroke-linecap:butt;stroke-linejoin:miter;stroke-miterlimit:10;stroke-dasharray:none;stroke-opacity:1"
         id="path23953" /><path
         d="m 21785,12114 -51,-9"
         style="fill:none;stroke:#f9f9f9;stroke-width:12;stroke-linecap:butt;stroke-linejoin:miter;stroke-miterlimit:10;stroke-dasharray:none;stroke-opacity:1"
         id="path23955" /><path
         d="M 20137,10598 24080,8914"
         style="fill:none;stroke:#f9f9f9;stroke-width:12;stroke-linecap:butt;stroke-linejoin:miter;stroke-miterlimit:10;stroke-dasharray:none;stroke-opacity:1"
         id="path23957" /><path
         d="m 20134,12028 760,-189"
         style="fill:none;stroke:#f9f9f9;stroke-width:12;stroke-linecap:butt;stroke-linejoin:miter;stroke-miterlimit:10;stroke-dasharray:none;stroke-opacity:1"
         id="path23959" /></g></g></svg>
