<?xml version="1.0" encoding="UTF-8" standalone="no"?>
<!-- Created with Inkscape (http://www.inkscape.org/) -->

<svg
   width="50mm"
   height="40mm"
   viewBox="0 0 50 40"
   version="1.1"
   id="svg5"
   xml:space="preserve"
   inkscape:version="1.2.1 (9c6d41e410, 2022-07-14)"
   sodipodi:docname="u022_303.svg"
   xmlns:inkscape="http://www.inkscape.org/namespaces/inkscape"
   xmlns:sodipodi="http://sodipodi.sourceforge.net/DTD/sodipodi-0.dtd"
   xmlns="http://www.w3.org/2000/svg"
   xmlns:svg="http://www.w3.org/2000/svg"><sodipodi:namedview
     id="namedview7"
     pagecolor="#ffffff"
     bordercolor="#999999"
     borderopacity="1"
     inkscape:showpageshadow="0"
     inkscape:pageopacity="0"
     inkscape:pagecheckerboard="0"
     inkscape:deskcolor="#d1d1d1"
     inkscape:document-units="mm"
     showgrid="false"
     inkscape:zoom="1.6819304"
     inkscape:cx="57.671827"
     inkscape:cy="138.23402"
     inkscape:window-width="1265"
     inkscape:window-height="993"
     inkscape:window-x="0"
     inkscape:window-y="47"
     inkscape:window-maximized="0"
     inkscape:current-layer="layer1" /><defs
     id="defs2"><clipPath
       clipPathUnits="userSpaceOnUse"
       id="clipPath23"><path
         d="M 11333,5522 H 28352 V 22541 H 11333 Z"
         id="path21" /></clipPath><clipPath
       clipPathUnits="userSpaceOnUse"
       id="clipPath22427"><path
         d="M -6,-6 H 39691 V 28069 H -6 Z"
         id="path22425" /></clipPath><clipPath
       clipPathUnits="userSpaceOnUse"
       id="clipPath22793"><path
         d="M -6,-6 H 39691 V 28069 H -6 Z"
         id="path22791" /></clipPath><clipPath
       clipPathUnits="userSpaceOnUse"
       id="clipPath23396"><path
         d="M -6,-6 H 39691 V 28069 H -6 Z"
         id="path23394" /></clipPath></defs><g
     inkscape:label="Layer 1"
     inkscape:groupmode="layer"
     id="layer1"><g
       id="g23392"
       clip-path="url(#clipPath23396)"
       transform="matrix(0.00270865,0,0,-0.00281739,-29.374572,59.532208)"><path
         d="m 18054,9337 -68,13 v 201 0 l -2477,467 -547,-265 2946,-608 412,344 -266,50 v -202 m -2545,1216 2477,-404 v 0 308 0 l -552,83 h -4 l -1439,216 -482,-203 m 1187,828 -275,32 -430,-153 1995,-254 v 0 223 0 l -1290,152 m 1673,-423 309,-40 314,192 -524,62 v 0 l -99,-214 v 0 m 35,221 -350,42 v 0 -223 0 l 250,-32 100,213 m -268,703 -82,7 v 0 -157 l 583,-57 -1,1 73,154 -573,52 m 883,-80 -249,23 v 0 l -72,-156 v 0 l 294,-28 277,139 -192,17 h -1 v -79 l -57,5 v 79 0 m -1779,160 -353,32 -191,-25 -275,-80 1566,-151 h -1 v 157 0 l -746,67 m 0,563 v -43 -1 l -353,-35 1211,-84 v 0 l 57,103 v 0 l -915,60 m 925,-168 765,-53 50,107 v 0 l -759,50 -56,-104 v 0 m 1351,19 -439,29 h -1 v -111 l 193,-14 247,96 m -527,-76 30,-2 v 66 0 l -30,-64 m 527,549 221,61 -457,20 v 0 l -32,-69 h 1 l 267,-12 m -291,84 -148,6 h -1 v -70 h 1 l 115,-5 33,69 v 0 m -766,-35 560,-26 v 0 70 0 l -523,23 v 0 l -37,-67 m -1219,57 1156,-54 v 1 l 36,66 -967,42 -224,-36 h -1 v -19 m 225,463 1198,-31 20,36 -933,23 -285,-28 m 1260,-33 294,-7 v 0 37 l -275,6 v 0 l -19,-36 v 0 m 351,-9 352,-9 v 0 l 17,37 v 0 l -368,9 h -1 v -37 m 713,1 -51,1 v 19 l -239,6 v 0 l -18,-38 256,-6 200,33 -148,3 v 0 -18 m -2039,459 1156,-10 v 0 l 6,11 -901,7 -261,-8 m 1215,-10 h 54 v 0 11 h -48 v 0 l -6,-11 v 0 m 193,9 -82,1 v -11 h 1 l 563,-5 5,12 v 0 l -487,3 m 678,-5 -47,1 v -12 0 l 148,-1 180,10 -281,2 m -144,-10 h 46 v 11 h 1 -42 v 0 l -6,-11 h 1 m -1372,-3726 358,259 -550,82 -74,-159 v -138 0 l 266,-44 m -259,351 -7,1 v 0 -15 0 l 7,14 m 5927,-1166 817,47 v 0 256 l -1158,-47 v 0 l 146,-111 155,-116 40,-29 v 0 m 900,52 532,31 -329,232 -203,-8 v -255 m -1382,-79 401,23 v 0 l -175,132 -163,125 v 0 l -177,-7 114,-273 v 0 m 211,-490 126,-292 51,-46 v 0 l 911,77 v 0 123 l -268,190 v 0 l -388,-25 -218,-13 -90,-6 -124,-8 m 1171,74 v -200 -1 l 164,-113 746,64 -378,284 -532,-34 v 0 m -263,-16 180,-126 v 137 0 l -180,-11 m 284,-269 -21,9 v 0 -51 0 l 72,6 v 0 l -51,36 m -104,-576 -361,-34 v 0 l 184,-159 177,-153 v 346 m 90,-416 1246,150 v 0 l -262,176 -247,167 h 1 l -745,-69 v 0 -418 l 7,-6 v 0 m 1307,188 -404,320 -67,-6 v 0 l 235,-158 236,-156 v 0 m -720,-673 161,-129 h 866 l -274,227 -753,-98 m -1947,1676 32,-29 152,-138 -74,174 h -1 l -109,-7 m -491,475 396,23 -116,274 -544,-22 v 0 l 2,-6 68,-73 z"
         style="fill:#c4954f;fill-opacity:1;fill-rule:evenodd;stroke:#c4954f;stroke-width:25;stroke-linecap:butt;stroke-linejoin:miter;stroke-miterlimit:10;stroke-dasharray:none;stroke-opacity:1"
         id="path23398" /><path
         d="m 16884,9201 1024,-218 v 162 l -2946,608 v -143 l 1922,-409 m 464,907 638,-109 v 150 0 l -2477,404 v -133 l 1839,-312 m 406,792 232,-31 v 0 137 0 l -1995,254 v -126 l 1763,-234 m 300,-40 189,-25 v 0 l 61,131 -250,32 v 0 -138 m 254,-34 370,-49 v 141 l -309,40 v 0 l -61,-132 v 0 m -197,772 467,-47 58,125 1,-1 -583,57 v -128 l 57,-6 m 881,43 -294,28 v 0 l -58,-125 352,-36 v 133 m -1205,-10 199,-20 v 0 127 h 1 l -1566,151 v -119 l 1366,-139 m 642,587 445,-33 106,226 v 0 l -759,50 -119,-219 327,-24 m -1189,89 795,-60 v 0 l 63,115 v 0 l -1211,84 v -113 l 353,-26 m 1694,-127 85,-6 v 0 124 l -30,2 -55,-120 v 0 m 335,-25 v 125 l -193,14 v -125 h 1 l 192,-14 m 247,576 v 118 l -267,12 h -1 l -52,-114 v 0 l 320,-16 m -324,133 -115,5 h -1 v -116 l 63,-3 v 0 l 53,114 m -479,-92 306,-16 v 0 116 0 l -560,26 -60,-110 314,-16 m -378,19 61,111 v -1 l -1156,54 v -107 h 1 l 1094,-57 v 0 m 633,479 51,-1 v 0 109 0 l -294,7 v 0 l -58,-106 h 14 1 l 286,-9 m 460,97 -352,9 v -109 h 1 l 299,-9 52,109 v 0 m 3,-111 306,-9 v 112 l -256,6 -50,-109 v 0 m -1966,60 1140,-35 v 0 l 58,106 -1198,31 v -102 m 1733,405 393,-5 v 0 l 49,104 -563,5 h -1 v -103 0 l 122,-1 m -275,3 96,-1 v 0 103 0 h -54 v 0 l -56,-102 v 0 h 14 m -1173,15 1100,-14 v 0 l 56,101 v 0 l -1156,10 v -97 m 2086,-26 101,-2 v 107 l -148,1 v 0 -106 0 h 47 m -193,2 95,-1 v 0 106 h -46 -1 l -48,-105 v 0 m 193,417 v -1 h -1 l 282,2 v 101 l -235,-2 -46,-100 v 0 m -4,100 -43,-1 v 0 -92 0 l 43,93 m -649,-5 -53,-98 v 0 l 609,2 h -1 v 100 l -555,-4 v 0 m -1172,-103 1061,4 v 1 l 54,97 v 0 l -1115,-8 v -94 m 239,354 1026,19 h -1 l 52,94 h 1 l -1078,-24 v -89 m 1081,20 407,8 v 0 95 0 l -355,-8 h -1 l -51,-95 m 458,9 174,3 h -1 l 46,97 v 0 l -219,-5 v -95 0 m 493,9 v 97 l -226,-5 h -1 l -44,-97 271,5 m -1812,288 992,31 v 0 l 50,91 v 0 l -1042,-37 v -85 m 1045,33 223,7 v 0 90 h 1 l -174,-6 v 0 l -50,-91 v 0 m 653,112 -379,-13 v 0 -90 l 335,10 44,93 v 0 m 3,-91 98,3 v 0 92 0 l -55,-2 v 0 l -43,-93 v 0 m 143,4 118,4 v 93 l -118,-4 v 0 -93 0 m 212,323 44,5 v 0 86 l -210,-10 v 0 l -42,-90 v 0 l 207,9 h 1 m -257,77 -480,-23 v 0 -86 0 l 480,21 v 0 88 0 m -584,-113 53,2 v 0 86 h -5 l -48,-88 v 0 m -1012,-45 960,42 49,88 v 0 l -1009,-47 v -83 m 188,279 931,51 v 0 l 47,85 v 0 l -978,-57 v -79 m 1408,161 -381,-22 -46,-86 427,24 v 84 0 m 45,-82 97,6 h -1 l 41,86 v 0 l -137,-8 v 0 -84 0 m 140,8 243,13 v 86 l -203,-12 v 0 l -40,-87 v 0 m 125,271 97,7 v 0 81 0 l -58,-4 -39,-83 v -1 m -265,-17 223,15 v 0 l 40,84 -263,-18 v -81 0 m -1278,-83 903,59 v 0 l 45,82 v 0 l -948,-64 v -77 m 1680,109 98,7 v 82 l -62,-4 -36,-3 v 0 -82 m -684,36 -45,-83 282,18 v 81 l -237,-16 v 0 m 684,209 207,15 v 79 l -190,-15 v 0 l -17,-36 v -43 0 m -1518,-113 877,65 44,80 -921,-71 v -74 m 1071,157 -103,-8 -44,-80 147,10 v 0 78 m 386,-49 21,45 v 0 0 1 34 0 l -362,-28 v 0 -77 l 341,25 m -341,197 362,30 v 0 75 l -362,-31 v 0 -74 0 m -66,-6 21,2 v 0 38 0 l -22,-40 h 1 m 468,39 48,4 37,79 -85,-8 v -75 m 124,86 -36,-79 90,8 v 76 l -54,-5 m -1490,-199 852,70 v 0 l 43,78 v 0 l -895,-76 v -72 m 1012,361 -870,-81 v -69 l 828,74 42,76 m 3,-72 311,29 v 0 72 l -270,-25 v 0 l -41,-75 v -1 m 501,46 28,58 v 17 l -178,-16 v -73 h 1 l 149,14 m -1240,73 805,79 v 0 l 41,73 v 0 l -846,-85 v -67 m 888,156 -40,-73 202,20 v 69 l -162,-16 m 202,-50 178,18 v 0 70 l -178,-18 v -70 m -965,79 784,82 v 0 l 40,72 -824,-89 v -65 m 925,164 -60,-6 -39,-71 99,10 v 67 m 40,5 v -68 l 178,19 v 68 l -178,-19 m -2662,-6881 266,-45 v 151 l -266,44 v 0 -150 0 m 5452,-736 52,-123 149,9 86,5 214,12 56,4 v 0 l -156,116 v 0 l -401,-23 v 0 m 640,-88 659,38 v 0 124 0 l -817,-47 v 0 l 157,-116 1,1 m 742,43 532,32 v 123 l -532,-31 v -124 0 m 910,-751 v 130 l -746,-64 170,-116 576,50 m -910,-79 240,21 -168,117 v 0 l -72,-6 v 0 -132 m -860,-75 777,68 v 0 131 0 l -911,-77 v 0 l 134,-122 v 0 m 1014,-865 1193,147 v 62 l -94,63 v 0 l -1246,-150 v 0 l 147,-122 v 0 m -1691,1680 81,5 v 100 l 18,2 -10,24 -396,-23 119,-119 v 0 l 57,3 130,8 z"
         style="fill:#be8d41;fill-opacity:1;fill-rule:evenodd;stroke:#be8d41;stroke-width:25;stroke-linecap:butt;stroke-linejoin:miter;stroke-miterlimit:10;stroke-dasharray:none;stroke-opacity:1"
         id="path23400" /><path
         d="m 19019,12493 -965,-2062 v 0 0 -155 l 1022,2213 -57,4 m -623,409 -410,-743 68,-6 1073,1971 3,5 1184,2174 2,4 436,801 95,174 v 0 l -23,25 -72,-131 -481,-873 -2,-4 -1197,-2170 -2,-5 -674,-1222 v 0 m 2280,3133 -362,-774 v -94 l 402,871 -40,-3 v 0 m 218,465 -178,-378 v 0 -84 l 178,384 v 0 78 m -580,-1333 -45,-2 -480,-1026 v 0 -108 l 525,1136 m -576,-1136 -661,-1414 h -1 v -128 l 713,1542 h -51 m 2790,-3944 156,-489 v 0 l 92,-99 4,1 v 0 l -192,590 -60,-3 m 0,1479 60,-165 131,-355 134,-353 137,-353 140,-351 30,-72 102,-82 -65,157 -79,195 -79,197 -78,196 -76,197 -76,197 -75,198 -74,197 -72,199 -60,-2 m 669,-1740 127,-304 116,-274 10,-24 51,-123 218,-518 124,-113 -126,292 -159,366 v 1 l -52,123 -114,273 -92,218 z"
         style="fill:#febc32;fill-opacity:1;fill-rule:evenodd;stroke:#febc32;stroke-width:25;stroke-linecap:butt;stroke-linejoin:miter;stroke-miterlimit:10;stroke-dasharray:none;stroke-opacity:1"
         id="path23402" /><path
         d="m 18250,14120 820,3 v 1 l 2,4 -1061,-4 239,-4 m 1488,6 v 5 l -595,-2 -3,-5 598,2 m -555,101 -53,-98 -3,-5 v 0 h 13 l 3,5 595,2 v 100 l -555,-4 v 0 m 1099,-99 -165,5 -281,-2 v -5 0 l 340,2 h 106 m -493,356 162,2 v 0 l 11,24 -173,-3 v 0 -23 m 211,3 432,8 -150,21 -271,-5 -11,-24 m -1530,-27 793,14 12,23 -1025,-19 220,-18 m 992,375 -992,-31 203,-30 768,23 21,38 v 0 m 276,9 -223,-7 v 0 l -20,-38 v 0 l 243,7 v 38 0 m 386,12 -335,-10 v -38 0 l 318,10 h -1 l 18,38 m 29,-37 116,3 v 39 l -98,-3 v 0 l -18,-39 v 0 m 161,5 256,8 -138,34 -118,-4 v 0 -38 m -45,341 v 9 0 l -480,-21 v 0 -49 0 l 460,19 v 0 l 20,42 m 301,22 -252,-11 v 0 l -4,-9 v -41 0 l 383,16 -127,45 m -832,-36 -53,-2 v 0 l -27,-51 v 0 l 80,3 v 0 50 0 m -105,-5 -960,-42 188,-39 745,31 27,50 m 159,288 -931,-51 175,-48 722,38 v 0 l 34,61 v 0 m 17,-59 460,24 v 61 l -427,-24 -34,-61 h 1 m 505,27 67,3 v 0 l 29,63 h 1 l -97,-6 v 0 -60 0 m 383,81 -243,-13 v 0 l -29,-62 v 0 l 327,17 62,3 -117,55 m -21,265 -97,-7 v 0 l -33,-71 v 0 l 130,8 v 70 0 m 138,9 -98,-7 v -70 h 1 l 35,3 142,9 29,1 -109,64 m -500,-102 190,12 v 0 l 33,72 v 0 l -223,-15 v 0 -69 0 m -365,-22 320,20 v 0 68 l -282,-18 -38,-70 v 0 m -10,67 -903,-59 162,-55 702,44 39,70 v 0 m 136,247 -877,-65 152,-61 682,48 v 0 l 43,78 m 4,-74 190,13 v 0 75 0 l -147,-10 -43,-78 v 0 m 235,16 304,22 v 0 l 37,79 -341,-25 v -76 0 m 609,121 -207,-15 v 0 -77 0 l 36,3 142,10 v 0 50 0 l 53,12 -24,17 m -264,-96 17,1 v 0 36 0 l -17,-37 v 0 m 105,227 130,11 v 0 83 0 l -90,-8 -40,-85 v -1 m 0,83 -48,-4 v -82 0 h 8 l 40,86 m -88,-7 -362,-30 v 0 -81 0 l 362,28 v 83 0 m -474,-40 -852,-70 142,-67 664,53 h -1 l 47,84 v 0 m -1,-80 68,5 v 81 0 l -21,-2 h -1 l -46,-84 m 164,299 -49,-89 v -1 l 360,32 v 87 0 l -311,-29 v 0 m -44,-4 -829,-74 134,-72 645,57 v 0 l 49,89 h 1 m 546,50 -150,-14 h -1 v -87 l 108,10 v 0 l 42,91 h 1 m -5,-88 32,3 v 0 65 0 l -32,-68 m 32,285 -178,-18 v -90 l 178,17 v 0 91 0 m -471,-136 253,24 v 91 l -202,-20 -51,-95 v 0 m 8,91 -805,-79 125,-75 628,59 52,95 v 0 m 104,188 -784,-82 118,-78 612,62 54,98 v 0 m -11,-94 152,16 v 93 l -99,-10 -53,-99 m 370,132 -178,-19 v -93 l 178,18 v 94 0 m -1156,-2314 -407,-8 -13,-23 420,8 z"
         style="fill:#8f7143;fill-opacity:1;fill-rule:evenodd;stroke:#8f7143;stroke-width:25;stroke-linecap:butt;stroke-linejoin:miter;stroke-miterlimit:10;stroke-dasharray:none;stroke-opacity:1"
         id="path23404" /><path
         d="m 23334,15771 -114,-18 -1316,-203 -162,-26 -8,-1 -259,-40 v -161 l 3169,436 v 216 l -1310,-203 m -2764,-495 127,-49 v -3 0 l 197,22 v 0 151 0 l -142,-17 -359,-41 v 0 l -33,-73 v 0 l 210,10 m -589,-27 288,13 v 0 64 0 l -262,-26 v 0 l -26,-51 m 333,15 h 2 -1 l 33,70 h 1 l -35,-3 v 0 -67 0 m -759,-36 127,6 v 0 l 21,38 -148,-12 z"
         style="fill:#be8d41;fill-opacity:1;fill-rule:evenodd;stroke:#be8d41;stroke-width:25;stroke-linecap:butt;stroke-linejoin:miter;stroke-miterlimit:10;stroke-dasharray:none;stroke-opacity:1"
         id="path23406" /><path
         d="m 19869,16938 v -160 l 706,76 96,175 -802,-91 m 747,-80 60,6 v 104 l -60,-110 m 100,11 178,19 v 0 166 l -142,-16 -36,-4 v 0 -165 m 2608,-7347 -127,304 -99,81 -94,78 -378,-14 154,-471 v 0 l 544,22 m 68,3 177,7 v 0 l -139,108 -130,103 92,-218 m -261,464 -57,-2 v 0 l 86,-70 -30,72 h 1 m -603,-219 v 197 0 l -121,-4 v 0 -54 l 121,-139 m 2563,-176 v 467 l -203,-7 v -468 l 203,8 v 0 m -2503,307 v -200 l 96,-103 v 0 l -96,303 m 609,91 65,-157 184,-145 201,-155 v 0 l 1158,47 v 469 l -1608,-59 m -2716,6692 -612,-62 v 0 -16 l 603,61 v 0 l 9,17 m 413,42 -178,-18 v -17 l 178,18 v 17 m -236,-24 v -16 l 18,1 v 17 l -18,-2 m -124,-13 -10,-1 -10,-17 10,1 z"
         style="fill:#dc9501;fill-opacity:1;fill-rule:evenodd;stroke:#dc9501;stroke-width:25;stroke-linecap:butt;stroke-linejoin:miter;stroke-miterlimit:10;stroke-dasharray:none;stroke-opacity:1"
         id="path23408" /><path
         d="m 16510,9281 -164,-303 242,-55 160,307 -238,50 v 1 m 482,887 -211,-389 232,-44 v 0 l 206,394 -227,39 m 248,457 -28,-52 v 0 l 218,-33 v 0 l 6,4 v 0 l 195,372 -217,29 -174,-320 m 746,986 -199,20 v 0 l -194,-356 v 0 l 212,-25 181,345 v 16 0 m 68,278 82,-7 180,344 -198,15 -64,-118 v 0 -234 0 m -68,109 -53,-98 v 0 l 53,-5 v 0 103 m 429,789 -178,-327 195,-13 v 0 l 173,330 -190,10 v 0 m 283,169 166,317 v 0 l -182,6 v 0 l -171,-315 v 0 l 187,-8 v 0 m 321,767 -96,1 -164,-303 v 0 l 180,-4 v 0 l 80,151 v 155 0 m 0,176 -34,-62 v 0 h 34 v 62 0 m 57,-220 23,43 h -23 v 0 -43 0 m 0,157 82,-1 152,289 h -1 -169 l -63,-118 h -1 v -170 m 481,761 108,207 v 0 l -158,-5 v 0 l -112,-206 162,4 v 0 m 20,332 162,5 h -1 v 167 0 l -68,-2 -92,-170 h -1 m 468,602 59,111 -144,-9 -60,-111 145,9 m 139,265 46,87 -139,-10 v 1 l -48,-88 141,10 m -8,236 93,7 v 63 l -57,-4 v 0 l -36,-66 v 0 m 257,239 25,48 v 0 l -132,-12 -12,-23 v 0 -23 0 l 119,10 m 112,214 16,31 -128,-12 v 0 l -17,-31 129,12 v 0 m -722,-1380 -34,-1 v -63 0 l 34,64 v 0 m 73,140 72,139 -148,-8 -31,-58 v -79 0 l 107,5 v 1 m -565,-770 -135,-248 168,1 131,250 -164,-3 m 1318,2210 9,17 -124,-13 -10,-17 125,13 m -335,-579 v -63 l 34,65 -34,-2 m 3479,-6963 138,-367 218,13 -142,366 -214,-12 m 317,-833 46,-119 288,-250 v 0 l 45,5 -156,383 v 0 z"
         style="fill:#bfbfbf;fill-opacity:1;fill-rule:evenodd;stroke:#bfbfbf;stroke-width:25;stroke-linecap:butt;stroke-linejoin:miter;stroke-miterlimit:10;stroke-dasharray:none;stroke-opacity:1"
         id="path23410" /><path
         d="m 18320,9943 -266,45 v 0 -449 l 266,-50 v -152 l -412,-354 -1024,218 -54,-106 -242,-172 -242,55 164,303 v -1 l -988,211 h 1 L 10894,6945 h 14749 l -296,238 -459,382 v -86 l -83,-17 v 173 l -177,147 -584,506 -477,433 -216,205 -2,1 -129,124 -46,44 -11,11 -313,315 -268,286 -175,202 v -74 l -62,-2 v 2170 0 l -611,121 v 0 -773 0 l -415,-100 -425,128 v 0 911 0 l -208,42 v 0 l -510,-281 -340,-187 -1278,-703 h 1 l 433,-51 v -133 l -314,-200 -370,49 v 0 l -180,-391 550,-82 v -142 l -358,-268 m -334,56 -638,109 v 0 l -203,-398 v 0 l 841,-159 v 0 448 m -1290,138 -463,-255 v 0 l 548,-103 211,389 -98,17 h 1 l -199,-48 v 0 m 929,511 -65,-127 v 0 l 426,-64 v 0 389 1 l -361,-199 v 0 m 429,212 v -414 0 l 7,-1 182,390 v 0 l -189,25 m 5144,-868 1607,59 v 0 200 0 l -126,84 -125,87 -122,89 -121,92 -119,94 -117,97 -115,99 -114,101 -45,43 -45,44 -44,46 -42,46 -42,48 -40,48 -39,50 -37,51 -94,157 -145,66 -135,62 -126,60 -117,56 -110,54 -102,52 -96,49 -89,47 v 0 l -91,18 v -1416 0 l 121,-114 v 0 1105 l 60,2 72,-199 74,-198 75,-197 76,-197 77,-197 77,-197 79,-196 79,-195 h 1 m -124,-5 57,2 h -1 l -140,351 -137,353 -134,353 -131,355 v 0 -995 0 l 107,-96 117,-102 126,-107 136,-114 v 0 m -486,360 v -257 0 l 38,-119 v 0 l 378,14 -115,97 -107,92 -101,88 -93,85 m -181,-384 121,4 v 0 120 314 l -121,115 v -553 0 m 991,1609 -11,26 -9,26 -8,27 -7,28 -6,28 -4,28 -2,28 -1,28 v 13 l -748,148 v 0 l 166,-84 185,-90 209,-99 236,-107 m 1693,-1511 -203,134 v -141 z"
         style="fill:#d1d1d1;fill-opacity:1;fill-rule:evenodd;stroke:#d1d1d1;stroke-width:25;stroke-linecap:butt;stroke-linejoin:miter;stroke-miterlimit:10;stroke-dasharray:none;stroke-opacity:1"
         id="path23412" /><path
         d="m 23220,14452 v 1077 l -1316,-177 v 0 -950 0 l 1316,50 m 0,-70 -1316,-42 v -2165 l 1316,-249 v 0 2456 0 m -2326,-2016 v 1942 l -142,-4 v -1911 l 142,-27 m -142,2842 v -850 0 l 142,6 v 0 858 l -142,-14 m 0,475 v -142 0 l 62,-31 v -82 l -62,-3 v 0 -45 0 l 142,17 v 0 294 1 l -142,-9 v 0 m 0,238 v -86 l 62,4 80,-49 v 141 0 l -142,-10 m 2468,-168 v 830 0 l -1316,-302 v 0 -732 1 z"
         style="fill:#aed7e3;fill-opacity:0.498039;fill-rule:evenodd;stroke:#aed7e3;stroke-width:25;stroke-linecap:butt;stroke-linejoin:miter;stroke-miterlimit:10;stroke-dasharray:none;stroke-opacity:0.498039"
         id="path23414" /><path
         d="m 20697,15202 55,6 142,14 v 24 l -197,-22 v 0 -22 m 1132,140 75,10 1316,177 1242,168 182,61 -3169,-436 110,-13 149,20 9,1 z"
         style="fill:#8f7143;fill-opacity:1;fill-rule:evenodd;stroke:#8f7143;stroke-width:25;stroke-linecap:butt;stroke-linejoin:miter;stroke-miterlimit:10;stroke-dasharray:none;stroke-opacity:1"
         id="path23416" /><path
         d="m 19937,13711 -101,2 v -319 0 l 101,-2 v -107 l -101,-19 v 0 -1402 l 340,187 v 2077 l -340,-2 v 0 -296 l 281,-2 v -102 l -180,-15 m 239,520 v 149 l -216,21 v 0 l -78,-169 235,2 59,-3 m -340,182 v -174 l 78,167 v 0 z"
         style="fill:#ca3e3e;fill-opacity:1;fill-rule:evenodd;stroke:#ca3e3e;stroke-width:25;stroke-linecap:butt;stroke-linejoin:miter;stroke-miterlimit:10;stroke-dasharray:none;stroke-opacity:1"
         id="path23418" /><path
         d="m 17908,8983 412,354 v 152 l -412,-344 v -162 m 412,960 358,268 v 142 l -358,-259 v -151 m 672,1034 v 133 l -314,-192 v -141 l 314,200 m 0,531 277,147 v 125 l -277,-139 v -133 m 277,772 v -125 l 247,103 v 118 l -247,-96 m 247,451 221,67 v 112 l -221,-61 v -118 m 320,535 101,19 v 107 l -200,-33 v -112 l 99,19 m 101,552 v -107 l 180,15 v 102 l -180,-10 m 345,407 -165,9 v -101 l 165,-5 v 97 m 0,388 v -97 l 150,-21 v 93 l -150,25 m 150,346 v -93 l 138,-34 v 89 l -138,38 m 138,231 v -3 l 127,-45 v 82 3 l -127,49 v -86 m 127,293 117,-55 v 82 l -62,31 -55,28 v -86 m 117,274 109,-64 v 79 l -29,18 -80,49 v -82 m 133,236 v 78 l -24,18 v -79 z"
         style="fill:#a77f41;fill-opacity:1;fill-rule:evenodd;stroke:#a77f41;stroke-width:25;stroke-linecap:butt;stroke-linejoin:miter;stroke-miterlimit:10;stroke-dasharray:none;stroke-opacity:1"
         id="path23420" /><path
         d="m 16887,11994 353,-32 v 345 l -353,26 v 113 l 353,35 v 1 5976 0 l -544,154 v 0 -6643 0 l 191,25 m -191,-252 v -361 0 l 544,-65 v 371 l -544,55 m 516,-1169 28,52 v 343 l -544,72 v 0 -390 l 516,-77 v 0 m -516,-436 199,48 h -1 l -198,33 v -81 0 m 4623,7165 v -6052 1 l 415,100 v 0 856 2132 57 933 l -149,-20 -110,13 v 161 l 259,40 v 0 719 942 0 z"
         style="fill:#cacaca;fill-opacity:1;fill-rule:evenodd;stroke:#cacaca;stroke-width:25;stroke-linecap:butt;stroke-linejoin:miter;stroke-miterlimit:10;stroke-dasharray:none;stroke-opacity:1"
         id="path23422" /><path
         d="m 17240,18260 771,-499 2106,331 635,-705 72,-80 23,-25 47,-52 53,-60 372,132 415,-118 v -942 l 9,2 h -1 v 32 l 87,20 75,-15 1316,302 v 38 -1 l 114,27 16,-4 v 23 14 l 1,14 1,14 2,14 1,14 2,13 2,14 2,14 2,14 3,13 3,14 3,13 3,14 3,13 4,14 3,13 4,14 4,13 4,13 5,13 4,13 5,13 5,13 5,13 6,13 5,13 6,13 6,12 6,13 6,12 6,12 7,13 7,12 6,12 8,12 7,12 7,11 8,12 12,20 12,19 13,20 12,19 13,19 13,20 13,19 14,19 13,18 14,19 13,19 14,18 14,19 14,18 15,18 14,18 15,18 15,18 15,18 15,17 15,18 15,17 16,17 15,17 50,54 53,56 56,58 60,60 64,62 68,64 72,67 78,69 82,72 87,75 93,78 99,81 104,85 112,88 118,91 126,96 134,100 142,104 151,109 161,114 171,120 183,125 194,132 206,138 221,146 235,153 251,161 268,170 287,180 307,190 329,202 352,214 H 12826 l 3870,-2506 544,-154 z"
         style="fill:#a8d2ca;fill-opacity:1;fill-rule:evenodd;stroke:#a8d2ca;stroke-width:25;stroke-linecap:butt;stroke-linejoin:miter;stroke-miterlimit:10;stroke-dasharray:none;stroke-opacity:1"
         id="path23424" /><path
         d="m 23512,11370 37,-51 39,-50 40,-48 42,-48 42,-46 44,-46 45,-44 45,-43 v 345 l -173,75 -161,71 v -115 m 0,3131 v -2980 0 l 161,-71 173,-74 v 0 3191 z"
         style="fill:#ca3e3e;fill-opacity:1;fill-rule:evenodd;stroke:#ca3e3e;stroke-width:25;stroke-linecap:butt;stroke-linejoin:miter;stroke-miterlimit:10;stroke-dasharray:none;stroke-opacity:1"
         id="path23426" /><path
         d="m 29291,6945 v 355 l -4200,2761 v -467 l 329,-232 v -123 l -230,-14 3042,-2280 h 528 1 52 z"
         style="fill:#dc9501;fill-opacity:1;fill-rule:evenodd;stroke:#dc9501;stroke-width:25;stroke-linecap:butt;stroke-linejoin:miter;stroke-miterlimit:10;stroke-dasharray:none;stroke-opacity:1"
         id="path23428" /><path
         d="m 19869,16622 -118,78 v 65 l 118,13 v 160 l -1391,897 -467,-74 z"
         style="fill:#dc9501;fill-opacity:1;fill-rule:evenodd;stroke:#dc9501;stroke-width:25;stroke-linecap:butt;stroke-linejoin:miter;stroke-miterlimit:10;stroke-dasharray:none;stroke-opacity:1"
         id="path23430" /><path
         d="m 20894,16087 29,2 24,-18 v -78 l -53,-12 v -50 -141 l 29,-18 v -79 l -29,-1 v -1 -294 -175 -858 -51 -1947 -987 l 425,-128 v -1 6052 l -372,-132 -53,60 v -176 -554 z"
         style="fill:#bfbfbf;fill-opacity:1;fill-rule:evenodd;stroke:#bfbfbf;stroke-width:25;stroke-linecap:butt;stroke-linejoin:miter;stroke-miterlimit:10;stroke-dasharray:none;stroke-opacity:1"
         id="path23432" /><path
         d="m 22407,12022 -60,33 v 0 h -2 v -52 -2170 l 62,2 v 74 54 553 l -60,57 60,2 v 0 1416 31 0 m 2400,-1082 h -2 v -689 -200 l 83,3 v 141 713 l -81,32 v 0 m -2,-3305 v -173 l 83,17 v 86 418 394 132 51 5 l -83,59 v -123 -131 -395 -340 m 83,1001 v 1418 l -83,-3 V 8624 l 83,12 m -6902,714 68,-13 v 1094 15 1037 2 668 l -68,6 V 9350 m 1033,2373 57,-5 v 771 l -57,-125 v 0 -641 m 719,1655 51,-1 v 654 l -51,-109 v -544 m 531,1444 v -210 l 13,1 32,-6 v 560 l -45,-97 v 0 -248 m 407,746 21,1 19,-10 v 0 479 l -40,-87 v 0 -383 0 m -1657,-2812 v -263 l 57,-4 v 1542 l -57,-106 v -1169 m 719,1370 v -95 0 h 51 v 1308 l -51,-93 v 0 -1120 m 531,1760 v -75 -9 -637 l 45,2 v 875 1 241 19 0 l -45,-82 v 0 -335 m 407,149 v 0 0 l 40,3 v 996 8 l -40,-74 v -932 -1 m 1912,-4634 -60,165 v -1105 0 l 60,-55 v 0 995 0 m 0,-1311 v 257 l -60,54 v -314 l 60,3 v 0 m -60,-123 v -197 l 54,-63 6,-6 v 200 l -60,186 v -120 m 973,-1184 v 318 l -51,123 -18,-2 v -373 0 z"
         style="fill:#fdab01;fill-opacity:1;fill-rule:evenodd;stroke:#fdab01;stroke-width:25;stroke-linecap:butt;stroke-linejoin:miter;stroke-miterlimit:10;stroke-dasharray:none;stroke-opacity:1"
         id="path23434" /><path
         d="m 27440,6945 -310,197 -309,199 -308,201 -307,202 -4,3 -236,156 -235,158 -255,172 -254,173 -170,116 -164,113 v 1 l -83,-12 83,-59 21,-14 51,-36 168,-117 244,-168 260,-178 247,-167 262,-176 94,-63 246,-162 259,-171 275,-180 291,-188 h 134 m -2635,1749 -180,126 -250,177 -230,166 -157,116 -40,29 -155,116 -146,111 -201,155 -184,145 -102,82 -86,70 -136,114 -126,107 -117,102 -107,96 -60,55 -121,114 v 0 l -60,-2 60,-57 121,-115 60,-54 93,-85 101,-88 107,-92 115,-97 94,-78 99,-81 103,-83 130,-103 139,-108 163,-125 175,-132 156,-116 227,-167 247,-178 268,-190 v 70 m 4486,623 -808,287 -710,256 -628,229 -557,207 -497,186 -444,170 -400,154 -359,142 -81,-8 v 0 l 81,-32 360,-143 400,-157 445,-171 497,-188 557,-209 628,-231 709,-259 807,-290 v 57 m -6944,2738 60,-33 91,-49 89,-47 96,-49 102,-52 110,-54 117,-56 126,-60 135,-62 145,-66 94,-42 161,-71 173,-75 212,-90 229,-96 249,-103 271,-110 v 0 l 81,8 -297,119 -271,110 -247,103 -227,96 -173,74 -161,71 -114,51 -236,107 -209,99 -185,90 -166,84 -93,49 -86,47 -16,8 h -26 z"
         style="fill:#feb825;fill-opacity:1;fill-rule:evenodd;stroke:#feb825;stroke-width:25;stroke-linecap:butt;stroke-linejoin:miter;stroke-miterlimit:10;stroke-dasharray:none;stroke-opacity:1"
         id="path23436" /><path
         d="m 16748,9230 -160,-307 242,172 54,106 -136,29 m 397,480 203,398 v 0 l -129,21 -206,-394 132,-25 v 0 m 289,830 126,-19 v 0 l 194,379 v 0 l -123,16 -197,-376 v 0 m 552,1055 -181,-345 121,-14 v 0 l 60,117 v 242 m 68,9 v -119 1 l 58,112 h -1 l -57,6 m 197,267 178,347 -113,8 -180,-344 115,-11 m 292,569 170,332 v 0 l -108,5 -173,-330 v 0 l 111,-7 v 0 m 321,833 -166,-317 v 0 l 106,-5 164,319 -104,3 v 0 m 235,449 -23,-43 v 0 -196 l 122,238 -99,1 m -80,-154 -80,-151 v 0 l 80,-2 v 153 m 291,556 -152,-289 h 99 l 148,290 v 0 l -96,-1 h 1 m 149,105 128,251 -92,-2 -131,-250 95,1 v 0 m 522,1020 71,139 -84,-4 -72,-139 v -1 l 85,5 m 147,287 57,111 -81,-5 -59,-111 83,5 m 141,275 v 75 l -39,-3 -46,-87 80,5 v 1 l 5,9 m 45,232 v -1 0 l 76,6 34,66 -76,-6 -34,-65 m 143,275 -24,-47 75,7 24,47 -69,-6 -6,-1 m 201,384 -9,-17 9,1 v 16 m -1010,-2103 90,176 v 31 l -73,-2 -108,-207 v 0 l 91,2 m 173,338 88,172 -86,-4 v 0 l -34,-64 v 0 -105 l 32,1 m 740,1579 -16,-31 72,7 16,31 -72,-7 m 3146,-7378 134,-368 90,6 -138,367 -86,-5 v 0 m 403,-828 -82,-8 v 0 l 16,-14 112,-97 z"
         style="fill:#b2b2b2;fill-opacity:1;fill-rule:evenodd;stroke:#b2b2b2;stroke-width:25;stroke-linecap:butt;stroke-linejoin:miter;stroke-miterlimit:10;stroke-dasharray:none;stroke-opacity:1"
         id="path23438" /><path
         d="m 12781,7983 117,-1038"
         style="fill:none;stroke:#f9f9f9;stroke-width:12;stroke-linecap:butt;stroke-linejoin:miter;stroke-miterlimit:10;stroke-dasharray:none;stroke-opacity:1"
         id="path23440" /><path
         d="M 15243,9337 16847,6945"
         style="fill:none;stroke:#f9f9f9;stroke-width:12;stroke-linecap:butt;stroke-linejoin:miter;stroke-miterlimit:10;stroke-dasharray:none;stroke-opacity:1"
         id="path23442" /><path
         d="M 18992,11087 22819,9453"
         style="fill:none;stroke:#f9f9f9;stroke-width:12;stroke-linecap:butt;stroke-linejoin:miter;stroke-miterlimit:10;stroke-dasharray:none;stroke-opacity:1"
         id="path23444" /><path
         d="m 23098,10236 651,-224"
         style="fill:none;stroke:#f9f9f9;stroke-width:12;stroke-linecap:butt;stroke-linejoin:miter;stroke-miterlimit:10;stroke-dasharray:none;stroke-opacity:1"
         id="path23446" /><path
         d="m 19274,11555 3071,-1059"
         style="fill:none;stroke:#f9f9f9;stroke-width:12;stroke-linecap:butt;stroke-linejoin:miter;stroke-miterlimit:10;stroke-dasharray:none;stroke-opacity:1"
         id="path23448" /><path
         d="m 19750,11817 1144,-331"
         style="fill:none;stroke:#f9f9f9;stroke-width:12;stroke-linecap:butt;stroke-linejoin:miter;stroke-miterlimit:10;stroke-dasharray:none;stroke-opacity:1"
         id="path23450" /><path
         d="m 22827,10927 1683,-487"
         style="fill:none;stroke:#f9f9f9;stroke-width:12;stroke-linecap:butt;stroke-linejoin:miter;stroke-miterlimit:10;stroke-dasharray:none;stroke-opacity:1"
         id="path23452" /><path
         d="m 21530,11302 815,-236"
         style="fill:none;stroke:#f9f9f9;stroke-width:12;stroke-linecap:butt;stroke-linejoin:miter;stroke-miterlimit:10;stroke-dasharray:none;stroke-opacity:1"
         id="path23454" /><path
         d="m 22648,11402 1053,-262"
         style="fill:none;stroke:#f9f9f9;stroke-width:12;stroke-linecap:butt;stroke-linejoin:miter;stroke-miterlimit:10;stroke-dasharray:none;stroke-opacity:1"
         id="path23456" /><path
         d="m 21734,11630 611,-152"
         style="fill:none;stroke:#f9f9f9;stroke-width:12;stroke-linecap:butt;stroke-linejoin:miter;stroke-miterlimit:10;stroke-dasharray:none;stroke-opacity:1"
         id="path23458" /><path
         d="m 20135,12028 759,-189"
         style="fill:none;stroke:#f9f9f9;stroke-width:12;stroke-linecap:butt;stroke-linejoin:miter;stroke-miterlimit:10;stroke-dasharray:none;stroke-opacity:1"
         id="path23460" /><path
         d="m 22407,11775 896,-196"
         style="fill:none;stroke:#f9f9f9;stroke-width:12;stroke-linecap:butt;stroke-linejoin:miter;stroke-miterlimit:10;stroke-dasharray:none;stroke-opacity:1"
         id="path23462" /><path
         d="m 21734,11923 611,-134"
         style="fill:none;stroke:#f9f9f9;stroke-width:12;stroke-linecap:butt;stroke-linejoin:miter;stroke-miterlimit:10;stroke-dasharray:none;stroke-opacity:1"
         id="path23464" /><path
         d="m 20452,12203 442,-97"
         style="fill:none;stroke:#f9f9f9;stroke-width:12;stroke-linecap:butt;stroke-linejoin:miter;stroke-miterlimit:10;stroke-dasharray:none;stroke-opacity:1"
         id="path23466" /><path
         d="m 18678,10344 495,-278"
         style="fill:none;stroke:#f9f9f9;stroke-width:12;stroke-linecap:butt;stroke-linejoin:miter;stroke-miterlimit:10;stroke-dasharray:none;stroke-opacity:1"
         id="path23468" /><path
         d="m 18207,10607 449,-251"
         style="fill:none;stroke:#f9f9f9;stroke-width:12;stroke-linecap:butt;stroke-linejoin:miter;stroke-miterlimit:10;stroke-dasharray:none;stroke-opacity:1"
         id="path23470" /><path
         d="M 18096,9144 20795,6945"
         style="fill:none;stroke:#f9f9f9;stroke-width:12;stroke-linecap:butt;stroke-linejoin:miter;stroke-miterlimit:10;stroke-dasharray:none;stroke-opacity:1"
         id="path23472" /><path
         d="M 18967,10182 24744,6945"
         style="fill:none;stroke:#f9f9f9;stroke-width:12;stroke-linecap:butt;stroke-linejoin:miter;stroke-miterlimit:10;stroke-dasharray:none;stroke-opacity:1"
         id="path23474" /><path
         d="m 20894,11960 -1291,-224"
         style="fill:none;stroke:#f9f9f9;stroke-width:12;stroke-linecap:butt;stroke-linejoin:miter;stroke-miterlimit:10;stroke-dasharray:none;stroke-opacity:1"
         id="path23476" /><path
         d="m 20894,11663 -2222,-439"
         style="fill:none;stroke:#f9f9f9;stroke-width:12;stroke-linecap:butt;stroke-linejoin:miter;stroke-miterlimit:10;stroke-dasharray:none;stroke-opacity:1"
         id="path23478" /><path
         d="m 22345,11951 -611,-121"
         style="fill:none;stroke:#f9f9f9;stroke-width:12;stroke-linecap:butt;stroke-linejoin:miter;stroke-miterlimit:10;stroke-dasharray:none;stroke-opacity:1"
         id="path23480" /><path
         d="m 22345,11604 -611,-141"
         style="fill:none;stroke:#f9f9f9;stroke-width:12;stroke-linecap:butt;stroke-linejoin:miter;stroke-miterlimit:10;stroke-dasharray:none;stroke-opacity:1"
         id="path23482" /><path
         d="m 22952,11744 -545,-126"
         style="fill:none;stroke:#f9f9f9;stroke-width:12;stroke-linecap:butt;stroke-linejoin:miter;stroke-miterlimit:10;stroke-dasharray:none;stroke-opacity:1"
         id="path23484" /><path
         d="m 23277,11819 -276,-64"
         style="fill:none;stroke:#f9f9f9;stroke-width:12;stroke-linecap:butt;stroke-linejoin:miter;stroke-miterlimit:10;stroke-dasharray:none;stroke-opacity:1"
         id="path23486" /><path
         d="m 21101,11316 -2873,-663"
         style="fill:none;stroke:#f9f9f9;stroke-width:12;stroke-linecap:butt;stroke-linejoin:miter;stroke-miterlimit:10;stroke-dasharray:none;stroke-opacity:1"
         id="path23488" /><path
         d="m 20894,12190 -647,-100"
         style="fill:none;stroke:#f9f9f9;stroke-width:12;stroke-linecap:butt;stroke-linejoin:miter;stroke-miterlimit:10;stroke-dasharray:none;stroke-opacity:1"
         id="path23490" /><path
         d="m 23457,11426 -741,-206"
         style="fill:none;stroke:#f9f9f9;stroke-width:12;stroke-linecap:butt;stroke-linejoin:miter;stroke-miterlimit:10;stroke-dasharray:none;stroke-opacity:1"
         id="path23492" /><path
         d="M 22345,10388 18506,9058"
         style="fill:none;stroke:#f9f9f9;stroke-width:12;stroke-linecap:butt;stroke-linejoin:miter;stroke-miterlimit:10;stroke-dasharray:none;stroke-opacity:1"
         id="path23494" /><path
         d="m 23899,10927 -945,-327"
         style="fill:none;stroke:#f9f9f9;stroke-width:12;stroke-linecap:butt;stroke-linejoin:miter;stroke-miterlimit:10;stroke-dasharray:none;stroke-opacity:1"
         id="path23496" /><path
         d="m 24739,10279 -542,-251"
         style="fill:none;stroke:#f9f9f9;stroke-width:12;stroke-linecap:butt;stroke-linejoin:miter;stroke-miterlimit:10;stroke-dasharray:none;stroke-opacity:1"
         id="path23498" /><path
         d="M 20030,9586 12407,6945"
         style="fill:none;stroke:#f9f9f9;stroke-width:12;stroke-linecap:butt;stroke-linejoin:miter;stroke-miterlimit:10;stroke-dasharray:none;stroke-opacity:1"
         id="path23500" /><path
         d="M 24281,8080 22644,6945"
         style="fill:none;stroke:#f9f9f9;stroke-width:12;stroke-linecap:butt;stroke-linejoin:miter;stroke-miterlimit:10;stroke-dasharray:none;stroke-opacity:1"
         id="path23502" /><path
         d="M 22860,9410 17525,6945"
         style="fill:none;stroke:#f9f9f9;stroke-width:12;stroke-linecap:butt;stroke-linejoin:miter;stroke-miterlimit:10;stroke-dasharray:none;stroke-opacity:1"
         id="path23504" /><path
         d="m 22407,10475 67,-23"
         style="fill:none;stroke:#f9f9f9;stroke-width:12;stroke-linecap:butt;stroke-linejoin:miter;stroke-miterlimit:10;stroke-dasharray:none;stroke-opacity:1"
         id="path23506" /><path
         d="m 22588,10412 433,-149"
         style="fill:none;stroke:#f9f9f9;stroke-width:12;stroke-linecap:butt;stroke-linejoin:miter;stroke-miterlimit:10;stroke-dasharray:none;stroke-opacity:1"
         id="path23508" /><path
         d="m 18149,10635 -95,-22"
         style="fill:none;stroke:#f9f9f9;stroke-width:12;stroke-linecap:butt;stroke-linejoin:miter;stroke-miterlimit:10;stroke-dasharray:none;stroke-opacity:1"
         id="path23510" /><path
         d="m 22660,11205 -72,-20"
         style="fill:none;stroke:#f9f9f9;stroke-width:12;stroke-linecap:butt;stroke-linejoin:miter;stroke-miterlimit:10;stroke-dasharray:none;stroke-opacity:1"
         id="path23512" /><path
         d="m 22897,10580 -309,-107"
         style="fill:none;stroke:#f9f9f9;stroke-width:12;stroke-linecap:butt;stroke-linejoin:miter;stroke-miterlimit:10;stroke-dasharray:none;stroke-opacity:1"
         id="path23514" /><path
         d="m 18672,11224 245,-105"
         style="fill:none;stroke:#f9f9f9;stroke-width:12;stroke-linecap:butt;stroke-linejoin:miter;stroke-miterlimit:10;stroke-dasharray:none;stroke-opacity:1"
         id="path23516" /><path
         d="m 22588,10996 168,-49"
         style="fill:none;stroke:#f9f9f9;stroke-width:12;stroke-linecap:butt;stroke-linejoin:miter;stroke-miterlimit:10;stroke-dasharray:none;stroke-opacity:1"
         id="path23518" /><path
         d="m 18054,10693 97,-54"
         style="fill:none;stroke:#f9f9f9;stroke-width:12;stroke-linecap:butt;stroke-linejoin:miter;stroke-miterlimit:10;stroke-dasharray:none;stroke-opacity:1"
         id="path23520" /><path
         d="m 22407,11048 121,-35"
         style="fill:none;stroke:#f9f9f9;stroke-width:12;stroke-linecap:butt;stroke-linejoin:miter;stroke-miterlimit:10;stroke-dasharray:none;stroke-opacity:1"
         id="path23522" /><path
         d="m 22407,11462 121,-30"
         style="fill:none;stroke:#f9f9f9;stroke-width:12;stroke-linecap:butt;stroke-linejoin:miter;stroke-miterlimit:10;stroke-dasharray:none;stroke-opacity:1"
         id="path23524" /><path
         d="m 22487,11979 -80,-16"
         style="fill:none;stroke:#f9f9f9;stroke-width:12;stroke-linecap:butt;stroke-linejoin:miter;stroke-miterlimit:10;stroke-dasharray:none;stroke-opacity:1"
         id="path23526" /><path
         d="m 22528,11168 -121,-33"
         style="fill:none;stroke:#f9f9f9;stroke-width:12;stroke-linecap:butt;stroke-linejoin:miter;stroke-miterlimit:10;stroke-dasharray:none;stroke-opacity:1"
         id="path23528" /><path
         d="m 17986,10597 -368,-85"
         style="fill:none;stroke:#f9f9f9;stroke-width:12;stroke-linecap:butt;stroke-linejoin:miter;stroke-miterlimit:10;stroke-dasharray:none;stroke-opacity:1"
         id="path23530" /><path
         d="m 17882,10789 104,-58"
         style="fill:none;stroke:#f9f9f9;stroke-width:12;stroke-linecap:butt;stroke-linejoin:miter;stroke-miterlimit:10;stroke-dasharray:none;stroke-opacity:1"
         id="path23532" /><path
         d="m 21785,12114 -51,-9"
         style="fill:none;stroke:#f9f9f9;stroke-width:12;stroke-linecap:butt;stroke-linejoin:miter;stroke-miterlimit:10;stroke-dasharray:none;stroke-opacity:1"
         id="path23534" /><path
         d="m 22489,10438 -82,-28"
         style="fill:none;stroke:#f9f9f9;stroke-width:12;stroke-linecap:butt;stroke-linejoin:miter;stroke-miterlimit:10;stroke-dasharray:none;stroke-opacity:1"
         id="path23536" /><path
         d="M 22345,11118 18446,10037"
         style="fill:none;stroke:#f9f9f9;stroke-width:12;stroke-linecap:butt;stroke-linejoin:miter;stroke-miterlimit:10;stroke-dasharray:none;stroke-opacity:1"
         id="path23538" /><path
         d="M 16061,9376 14555,8959"
         style="fill:none;stroke:#f9f9f9;stroke-width:12;stroke-linecap:butt;stroke-linejoin:miter;stroke-miterlimit:10;stroke-dasharray:none;stroke-opacity:1"
         id="path23540" /><path
         d="m 18187,9965 -970,-269"
         style="fill:none;stroke:#f9f9f9;stroke-width:12;stroke-linecap:butt;stroke-linejoin:miter;stroke-miterlimit:10;stroke-dasharray:none;stroke-opacity:1"
         id="path23542" /></g></g></svg>
