<?xml version="1.0" encoding="UTF-8" standalone="no"?>
<!-- Created with Inkscape (http://www.inkscape.org/) -->

<svg
   width="50mm"
   height="40mm"
   viewBox="0 0 50 40"
   version="1.1"
   id="svg5"
   xml:space="preserve"
   inkscape:version="1.2.1 (9c6d41e410, 2022-07-14)"
   sodipodi:docname="u022_301.svg"
   xmlns:inkscape="http://www.inkscape.org/namespaces/inkscape"
   xmlns:sodipodi="http://sodipodi.sourceforge.net/DTD/sodipodi-0.dtd"
   xmlns="http://www.w3.org/2000/svg"
   xmlns:svg="http://www.w3.org/2000/svg"><sodipodi:namedview
     id="namedview7"
     pagecolor="#ffffff"
     bordercolor="#999999"
     borderopacity="1"
     inkscape:showpageshadow="0"
     inkscape:pageopacity="0"
     inkscape:pagecheckerboard="0"
     inkscape:deskcolor="#d1d1d1"
     inkscape:document-units="mm"
     showgrid="false"
     inkscape:zoom="4.7572176"
     inkscape:cx="101.74014"
     inkscape:cy="78.302073"
     inkscape:window-width="1265"
     inkscape:window-height="993"
     inkscape:window-x="0"
     inkscape:window-y="47"
     inkscape:window-maximized="0"
     inkscape:current-layer="layer1" /><defs
     id="defs2"><clipPath
       clipPathUnits="userSpaceOnUse"
       id="clipPath23"><path
         d="M 11333,5522 H 28352 V 22541 H 11333 Z"
         id="path21" /></clipPath><clipPath
       clipPathUnits="userSpaceOnUse"
       id="clipPath22427"><path
         d="M -6,-6 H 39691 V 28069 H -6 Z"
         id="path22425" /></clipPath></defs><g
     inkscape:label="Layer 1"
     inkscape:groupmode="layer"
     id="layer1"><g
       id="g22423"
       clip-path="url(#clipPath22427)"
       transform="matrix(0.00279636,0,0,-0.00281733,-31.943301,59.531343)"><path
         d="m 21829,15342 75,10 1316,177 4488,605 423,104 -6656,-916 110,-13 149,20 9,1 86,12 m -935,-116 -1183,-91 6,-18 202,16 975,78 z"
         style="fill:#a77f41;fill-opacity:1;fill-rule:evenodd;stroke:#a77f41;stroke-width:25;stroke-linecap:butt;stroke-linejoin:miter;stroke-miterlimit:10;stroke-dasharray:none;stroke-opacity:1"
         id="path22431" /><path
         d="m 20752,15346 -140,-6 -335,-14 -616,-59 50,-132 1183,91 v 13 l -45,195 v -84 l -97,-4 m 2582,425 -114,-18 -1316,-203 -162,-26 -8,-1 -259,-40 v -161 l 6656,916 v 276 z"
         style="fill:#be8d41;fill-opacity:1;fill-rule:evenodd;stroke:#be8d41;stroke-width:25;stroke-linecap:butt;stroke-linejoin:miter;stroke-miterlimit:10;stroke-dasharray:none;stroke-opacity:1"
         id="path22433" /><path
         d="m 21475,15483 259,40 v 719 942 l -415,118 v -6051 l 415,100 v 856 2128 4 57 933 l -149,-20 -110,13 z"
         style="fill:#cacaca;fill-opacity:1;fill-rule:evenodd;stroke:#cacaca;stroke-width:25;stroke-linecap:butt;stroke-linejoin:miter;stroke-miterlimit:10;stroke-dasharray:none;stroke-opacity:1"
         id="path22435" /><path
         d="m 21319,11251 v 6051 0 l -425,-151 v 0 -532 l 63,-318 v -1134 -4 l 44,-211 42,-212 39,-212 37,-212 h 1 4 v 0 708 l 41,1 v -1163 0 h 17 v -85 l -17,-3 v -230 0 h 65 v 0 -82 l -48,-23 -288,4 v 0 -186 -6 0 l 339,-30 v -81 l -1,-1 -2,-1 -336,7 v -1 -156 -118 -132 -123 -109 -127 -13 -76 -1 -130 0 -205 -1 -574 l 425,-128 m -425,2517 v -220 0 l 230,-3 v 0 221 h -2 l -228,2 v 0 m 230,260 -15,92 1,-1 h -216 v 0 -256 0 l 230,-1 v 166 m -230,280 v -93 0 l 153,1 48,-5 -50,282 v 0 l -151,-2 v 0 -127 -51 -5 m 133,283 -70,350 v -39 -1 -290 0 l 70,-20 m -117,309 h -16 v 0 -290 0 h 16 z"
         style="fill:#bfbfbf;fill-opacity:1;fill-rule:evenodd;stroke:#bfbfbf;stroke-width:25;stroke-linecap:butt;stroke-linejoin:miter;stroke-miterlimit:10;stroke-dasharray:none;stroke-opacity:1"
         id="path22437" /><path
         d="M 29291,21118 H 13538 l 258,-151 257,-151 258,-152 256,-153 256,-154 256,-154 255,-156 254,-156 213,-132 212,-133 v 0 l 140,48 987,342 v 0 l -65,124 238,86 128,-105 v -1 l 64,23 1361,471 308,-343 108,-120 279,-324 71,-81 42,-52 187,-226 17,-21 32,-38 17,-21 9,-11 60,-76 181,-230 127,-171 85,-114 5,-7 171,-243 4,-5 9,-14 34,-51 67,-102 6,-10 25,-37 11,-17 11,-17 20,-34 97,-159 14,-24 94,-167 90,-175 75,-160 -423,-40 v 0 l 51,-226 49,-226 48,-226 47,-227 v 532 0 l 425,151 415,-118 v 0 -942 0 l 9,2 h -1 v 32 0 l 87,20 75,-15 1316,302 v 0 38 -1 l 114,27 67,-18 v 14 l 5890,3617 v 858 m -8749,-4263 v 654 0 l -180,-17 h 1 l 90,-318 88,-319 h 1 m 352,-806 v 329 l -58,286 -61,285 -62,285 -65,285 v 0 l -54,-5 v 0 -854 l 84,-321 82,-321 v 0 l 134,31 v 0 m -588,1437 -1184,-113 v 0 l 94,-91 92,-92 869,117 212,-185 v -119 l -829,-95 31,-39 29,-38 29,-40 29,-40 27,-41 26,-41 26,-42 24,-42 608,61 153,-119 v 129 l -58,208 -58,208 -60,207 -60,207 v 0 m 236,-1432 v 337 l -654,-56 7,-25 6,-26 5,-25 5,-26 3,-25 3,-26 1,-26 1,-26 v -122 l 623,46 m 52,407 v -422 0 l 32,-22 h 1 l 52,12 29,-5 h -2 z"
         style="fill:#a8d2ca;fill-opacity:1;fill-rule:evenodd;stroke:#a8d2ca;stroke-width:25;stroke-linecap:butt;stroke-linejoin:miter;stroke-miterlimit:10;stroke-dasharray:none;stroke-opacity:1"
         id="path22439" /><path
         d="m 23220,15529 -1316,-177 v 0 -950 0 l 1316,50 v 1077 m -1316,21 1316,203 v 0 830 0 l -1316,-302 v 0 -732 1 m 1316,-1168 -1316,-42 v -2165 l 1316,-249 v 0 2456 0 m -2326,-519 v 256 0 l -142,-1 v 0 -254 0 l 142,-1 v 0 m -142,-314 142,-1 v 0 220 0 l -142,1 v 0 -220 0 m 142,666 v 93 l -142,-4 v -90 h 1 l 141,1 v 0 m 0,149 v 127 0 l -142,-2 v 0 -131 l 142,6 v 0 m 0,246 v 290 0 l -142,-4 v -288 0 l 142,2 v 0 m 0,416 v 185 l -142,-11 v -157 0 l 97,3 45,-20 m -282,-1579 -341,5 v 0 l 51,-185 v 0 l 290,-5 v 185 m -371,108 371,-4 v 219 0 l -435,3 64,-218 v 0 m 371,309 v 254 0 l -543,-1 79,-251 464,-2 m -574,346 574,3 v 87 0 l -597,-19 v 0 l 23,-71 m 574,143 v 134 0 l -664,-9 51,-148 v 0 l 613,23 m 0,539 -693,-18 v -281 0 l 693,12 v 0 287 m -693,-1333 106,-2 v 0 l -72,217 -34,1 v 0 -216 0 m 139,-104 -139,2 v 0 -184 0 l 197,-3 v 0 l -58,185 v 0 m 90,-295 -229,5 v 0 -157 0 l 275,-5 v 0 l -46,157 m 464,-9 -261,5 h -1 l 40,-158 h 1 l 221,-4 v 0 157 0 m -163,-402 163,-4 v 132 l -194,5 v 0 l 31,-133 v 0 m -530,12 343,-8 -36,134 v 0 l -307,8 v 0 -134 0 m 374,-129 -374,11 v -92 0 l 123,-24 v 0 l 278,-7 -27,112 v 0 m 319,-9 -137,4 v 0 l 23,-111 114,-3 v 0 110 0 m 140,-114 141,-3 h 1 v 109 0 l -142,4 v 0 -110 0 m 0,232 141,-3 h 1 v 132 0 l -142,3 v 0 -131 -1 m 142,404 -142,3 v -157 0 l 142,-3 v 0 156 1 m -142,114 141,-2 h 1 v 186 0 l -142,2 v -186 0 m -140,2579 -693,-43 v 0 -311 0 l 693,35 v 0 319 m -693,-705 v -118 0 l 693,23 v 0 151 l -693,-56 m 358,193 -358,-16 v 0 -18 l 358,34 m 568,128 -93,390 v -336 -1 l 93,-53 v 0 m 49,595 -134,-31 v 0 l 133,-565 h 1 v 596 0 m -822,2407 109,-355 h 1 l 290,146 v 0 l -63,250 v 0 l -337,-41 m 392,48 57,-232 h 1 l 90,45 v 149 l -34,51 v 1 l -114,-14 v 0 m -60,12 -100,384 -127,171 -181,230 v -600 0 l 71,-227 v 0 l 337,42 v 0 m 55,7 107,13 h -1 l -171,243 v 0 l 65,-256 v 0 m -463,-77 v -439 0 l 133,67 v 0 l -117,374 h 1 l -17,-2 m 530,-417 -30,121 v 0 l -287,-141 v 0 l 5,-15 v 0 l 312,35 v 0 m 53,5 33,4 v 0 168 0 l -66,-32 h -1 l 34,-140 m 270,56 -97,159 v -196 l 112,13 h -1 z"
         style="fill:#aed7e3;fill-opacity:0.498039;fill-rule:evenodd;stroke:#aed7e3;stroke-width:25;stroke-linecap:butt;stroke-linejoin:miter;stroke-miterlimit:10;stroke-dasharray:none;stroke-opacity:0.498039"
         id="path22441" /><path
         d="m 20894,13251 v 6 h -1 l -141,2 -140,3 -290,5 v 0 l 8,-31 v 0 l 900,-17 3,2 -339,30 v 0 m -1535,4 766,-15 v 0 l -9,30 v 0 l -197,3 -463,8 -97,-26 m -111,293 783,-10 v 0 l -6,19 v 0 l -106,2 -560,6 -111,-17 m 1982,-4 h -65 v 0 -10 l -41,1 v 10 0 l -230,3 -142,1 -140,2 -371,4 v 0 l 6,-20 v 0 l 935,-12 48,20 v 1 m -551,-552 -67,2 -221,4 h -1 l 10,-39 v 0 l 494,-12 v 0 41 0 l -142,3 -73,1 m -1223,-11 749,-18 v 0 l -11,40 v 0 l -275,5 -377,8 -86,-35 m 86,-255 732,-19 v -1 l -12,47 -343,8 -303,8 -74,-43 m 1137,17 -67,2 -163,4 v 0 l 10,-48 v 1 l 435,-12 v 0 48 h -1 l -141,3 -73,2 m 0,-232 -67,2 -114,3 10,-54 v 0 l 386,-11 v 0 55 h -1 l -141,3 -73,2 m -760,19 -240,7 -63,-49 717,-21 v 0 l -13,53 -278,7 -123,3 m 0,-216 -185,5 -55,-54 703,-21 v 0 l -12,58 v 0 l -451,12 m 975,-25 -356,9 v 0 l 10,-59 v 0 l 346,-11 v 0 61 0 m -994,-178 -120,3 -46,-59 689,-20 h -1 l -11,63 v 0 l -511,13 m 680,-81 314,-9 v 0 65 l -323,8 v 0 l 9,-64 v 0 m 544,1832 -230,1 -142,1 h -140 l -464,2 2,-7 h 1 l 971,-5 60,8 h -17 -41 m -1205,-2 v 7 l -671,3 -126,-6 z"
         style="fill:#c4954f;fill-opacity:1;fill-rule:evenodd;stroke:#c4954f;stroke-width:25;stroke-linecap:butt;stroke-linejoin:miter;stroke-miterlimit:10;stroke-dasharray:none;stroke-opacity:1"
         id="path22443" /><path
         d="m 29291,6945 v 1791 l -1117,583 -1630,851 -3093,1614 v 0 l -1717,340 v 0 -773 l -415,-100 -425,128 v 574 l -1,1 -304,9 v 0 l 12,-97 v 0 l 6,-49 -12,-36 -132,5 -19,123 v 0 l -10,59 v 0 l -581,18 v 0 l -18,-34 -19,-35 -22,-36 -24,-38 -27,-38 -29,-40 -33,-42 -36,-43 -39,-44 -42,-46 -46,-48 -50,-49 -54,-52 -59,-53 -62,-56 -68,-57 -73,-60 -78,-63 -83,-65 -90,-67 -96,-71 -104,-74 -110,-77 -118,-80 -127,-85 -136,-88 -145,-92 -155,-97 -167,-102 -178,-107 -191,-113 -205,-119 -196,-111 -196,-111 -197,-109 -197,-109 -198,-107 -199,-107 -199,-106 -199,-105 -526,-272 -527,-270 -529,-267 -529,-265 -531,-262 -533,-259 -534,-256 -535,-254 h 17947 m -8895,5230 -481,15 -15,-79 511,-13 v 0 l -15,76 v 1 m 175,-81 323,-8 v 73 0 l -334,10 v 0 l 11,-75 v 0 m -33,204 356,-9 v 1 l -367,73 v 0 l 11,-65 v 0 m -189,98 -430,13 v 0 -95 l 451,-12 v 0 z"
         style="fill:#d1d1d1;fill-opacity:1;fill-rule:evenodd;stroke:#d1d1d1;stroke-width:25;stroke-linecap:butt;stroke-linejoin:miter;stroke-miterlimit:10;stroke-dasharray:none;stroke-opacity:1"
         id="path22445" /><path
         d="m 16483,19326 19,-12 20,-14 262,-170 706,202 -12,23 -169,135 -69,53 -120,94 -618,-191 -349,228 v 0 l -140,-48 v 0 l 235,-150 235,-150 m 1271,-859 152,34 v 0 l -175,352 v 0 l -392,-96 v 0 l 60,-42 355,-248 m 616,138 -171,152 -54,46 v 0 l 105,-225 v 0 l 120,27 m 609,-1100 v -1 0 l 72,-65 71,-66 v 0 153 l -143,-21 m 143,-132 1184,113 v 0 l -75,251 -76,251 h 1 l -148,-16 v 0 l 169,-161 v -126 l -1055,-159 v -153 m 1421,587 -17,69 v 0 l -312,-35 v 0 l 75,-251 74,-251 h -1 l 180,17 v 0 450 l 1,1 v 0 m 105,-441 -54,228 v -233 0 l 54,5 v 0 m 51,5 423,40 -75,160 -90,175 -94,167 h 1 l -112,-13 -140,-15 -33,-4 61,-255 59,-255 v 0 m -1924,705 -335,-64 150,-331 8,-17 h 1 l 12,2 h -1 l 485,84 -116,122 -161,162 z"
         style="fill:#dc9501;fill-opacity:1;fill-rule:evenodd;stroke:#dc9501;stroke-width:25;stroke-linecap:butt;stroke-linejoin:miter;stroke-miterlimit:10;stroke-dasharray:none;stroke-opacity:1"
         id="path22447" /><path
         d="m 18274,19557 v 436 l -44,-14 v -435 0 l 44,13 v 0 m 0,-867 v 296 l -44,-11 v 0 -245 0 l 44,-40 m 797,490 v -417 l 25,6 v 418 l -25,-7 m 0,-894 v -358 l 24,-25 1,1 v 387 l -25,-5 m 1471,-327 v -1104 h -1 l 53,-195 v 1307 l -51,-7 -1,-1 m 415,-1664 -47,-3 v -913 l 47,-212 v 1128 m 166,-2006 42,-261 v 997 l -41,-1 v -735 h -1 m 1,-261 v -166 h 41 v 166 0 h -41 m 41,-494 v 240 l -41,-8 v -231 l 41,-1 m -571,2505 v 621 l -52,-4 v -129 l 27,-21 v -113 l -27,-2 v -337 l 27,2 25,-17 v 0 m -598,2462 v 200 0 l -60,-12 v -231 -19 -399 l 60,-57 v 24 439 19 36 m 961,-3503 v 165 h -47 v -144 l 47,-21 v 0 m 0,-387 v 290 0 l -47,-1 v 0 -290 l 47,1 v 0 m -1021,4278 60,-188 v 0 600 l -60,76 z"
         style="fill:#fdab01;fill-opacity:1;fill-rule:evenodd;stroke:#fdab01;stroke-width:25;stroke-linecap:butt;stroke-linejoin:miter;stroke-miterlimit:10;stroke-dasharray:none;stroke-opacity:1"
         id="path22449" /><path
         d="m 21165,14028 -22,143 -24,143 -24,143 -26,142 -26,142 -28,142 -29,142 -29,142 v -169 0 0 -57 l 70,-350 20,-6 v -92 h -2 v 0 l 50,-282 27,-3 v -89 h -12 -1 l 15,-91 h 41 v 0 m -405,1990 -82,321 -84,321 v -199 l 158,-617 93,-390 v 0 l 4,-2 v -18 l 45,-195 16,-76 h 47 v 4 l -47,212 -17,74 -133,565 m -764,2683 v -200 0 l 11,-34 5,-19 117,-374 12,-40 14,-46 76,-251 75,-251 60,-207 60,-207 58,-208 58,-208 52,4 -53,195 -88,319 -90,318 -74,251 -75,251 -5,15 -28,92 -109,355 -5,18 -71,227 v 0 m -126,396 -196,597 v 0 l -42,52 -71,81 309,-932 66,-206 60,12 v 0 l -60,188 -66,208 m 675,-923 -24,98 -57,232 -5,19 -65,256 v 0 l -5,7 -85,114 100,-384 5,-19 63,-250 24,-97 30,-121 17,-69 v 0 l 51,7 v -220 l 54,-228 65,-285 62,-285 61,-285 58,-286 17,-86 h -1 l 47,3 v 6 l -63,318 -47,227 -48,226 -49,226 -51,226 -59,255 -61,255 z"
         style="fill:#dc9501;fill-opacity:1;fill-rule:evenodd;stroke:#dc9501;stroke-width:25;stroke-linecap:butt;stroke-linejoin:miter;stroke-miterlimit:10;stroke-dasharray:none;stroke-opacity:1"
         id="path22451" /><path
         d="m 20409,18497 -5,19 v 0 l -337,-42 v 0 l 5,-18 337,41 v 0 m 156,39 -106,-13 v 0 l 5,-19 v 0 l 114,14 v -1 l -9,14 -4,5 m -1768,165 -315,335 -41,-10 316,-334 40,9 m -1116,1109 -13,-4 h 1 l 34,-71 281,-261 43,12 -346,324 m 1159,-91 -274,364 -40,-12 v 0 l 276,-363 38,11 m 849,-277 -57,-9 v 0 -23 0 l 64,10 -7,22 m 318,-975 -11,-2 v -19 l 16,2 -5,19 m -71,-28 v 19 l -9,-1 v -6 l -190,-37 v 0 l 133,17 66,8 m -66,1007 8,1 -17,21 -107,-16 7,-23 z"
         style="fill:#dc9501;fill-opacity:1;fill-rule:evenodd;stroke:#dc9501;stroke-width:25;stroke-linecap:butt;stroke-linejoin:miter;stroke-miterlimit:10;stroke-dasharray:none;stroke-opacity:1"
         id="path22453" /><path
         d="m 19174,20271 -308,343 -1361,-471 164,-337 h -1 l 1506,465 v 0 m -2672,-825 618,191 120,37 65,20 v 0 l -100,195 -65,127 v 0 l -987,-342 v 0 l 349,-228 m 1580,-507 1550,378 -350,375 -1375,-383 v 0 l 175,-371 v 1 m -1151,-282 408,100 392,96 v 0 l -179,357 v 0 l -1050,-293 429,-260 m 1510,-492 1486,286 -295,295 -1326,-289 v 0 l 134,-292 h 1 m -1132,-218 795,153 h -1 l -138,282 v 1 l -1034,-226 378,-210 m 2618,-32 -1276,-216 h 1 l 103,-228 1422,214 -250,230 m -2284,-611 786,118 v 0 l -105,222 v 0 l -1015,-172 334,-168 m 2534,-123 -1225,-159 76,-176 1361,157 -212,178 m -2239,-460 777,89 v 0 l -79,171 v 0 l -993,-128 295,-132 m 1324,-441 1307,113 -180,135 -1179,-115 54,-132 -2,-1 m -1324,10 261,-102 767,67 v 0 l -58,129 v 0 l -970,-94 m 2674,-452 109,7 -152,98 -1137,-79 h -1 l 38,-97 450,28 693,43 m -1466,6 -947,-67 232,-75 756,47 h -1 l -40,95 v 0 m 1466,-504 140,6 97,4 -128,68 -1097,-52 25,-67 270,11 693,30 m -1258,13 -923,-44 205,-54 745,32 v 0 l -28,66 h 1 m 181,-448 -899,-27 182,-34 734,20 v 0 l -17,41 v 0 m 159,-409 -876,-13 161,-18 723,10 -8,21 m 1351,-3 v 0 l -88,22 -1016,-16 v 0 l 7,-21 664,9 140,2 142,2 151,2 v 0 m -1211,-377 -2,4 -853,-2 143,-3 712,1 v 0 0 m 1275,3 v 1 l -62,3 -979,-2 1,-4 543,1 h 140 l 142,1 h 215 m -152,782 v 0 l -108,43 -1056,-31 15,-42 111,3 693,18 140,4 142,4 z"
         style="fill:#8f7143;fill-opacity:1;fill-rule:evenodd;stroke:#8f7143;stroke-width:25;stroke-linecap:butt;stroke-linejoin:miter;stroke-miterlimit:10;stroke-dasharray:none;stroke-opacity:1"
         id="path22455" /><path
         d="m 21230,13544 -48,-21 v -84 l 48,23 v 82 0 m -65,230 17,3 v 85 l -60,-8 v -88 h 2 l 41,8 m -56,346 13,-1 v 89 l -75,8 v -93 l 62,-3 m -64,373 h 2 v 92 l -90,26 v -96 l 88,-22 m -88,409 v -1 1 96 l -63,28 -45,20 v -102 l 108,-42 m -108,448 v 84 18 l -4,2 -93,53 -31,18 v -107 l 128,-68 m -280,706 v -113 l 152,-98 v 107 l -152,104 m -180,472 180,-135 v 113 l -180,140 v -118 m -212,653 212,-178 v 119 l -212,185 v -126 m -250,868 v -134 l 250,-230 v 126 l -241,229 -9,9 m -645,1643 350,-375 v 143 l -350,385 v -153 m 350,-946 295,-295 v 134 l -57,59 -238,245 z"
         style="fill:#a77f41;fill-opacity:1;fill-rule:evenodd;stroke:#a77f41;stroke-width:25;stroke-linecap:butt;stroke-linejoin:miter;stroke-miterlimit:10;stroke-dasharray:none;stroke-opacity:1"
         id="path22457" /><path
         d="m 17505,20143 -64,-23 v 1 l -128,105 128,-258 135,-271 129,-261 124,-253 119,-245 114,-236 109,-229 105,-221 101,-214 97,-208 93,-201 90,-195 86,-190 82,-183 80,-178 76,-174 74,-168 71,-163 68,-159 65,-154 63,-151 60,-146 59,-142 56,-139 54,-135 51,-131 50,-128 48,-125 46,-121 45,-119 42,-116 41,-113 40,-110 38,-107 36,-105 35,-102 34,-101 32,-97 31,-96 30,-93 28,-91 27,-89 27,-88 25,-85 24,-83 45,-162 41,-154 37,-148 34,-142 30,-137 28,-130 25,-126 22,-121 19,-116 17,-111 16,-124 12,36 -6,49 -6,49 -6,48 -4,34 -5,33 -4,32 -5,32 -6,38 -5,37 -6,35 -6,35 -5,29 -5,30 -5,32 -6,33 -5,27 -7,36 -7,36 -5,27 -5,27 -23,111 -16,74 -10,48 -31,133 -18,77 -10,39 -40,158 -20,80 -8,31 -51,185 -24,83 -6,20 -64,218 -27,86 -2,7 -79,251 -1,4 -30,89 -23,71 -1,3 -15,46 -51,148 -7,21 -33,93 -65,182 -66,180 -66,181 -50,132 -12,32 -25,67 -38,100 -58,151 -59,150 -38,97 -41,104 -63,157 -63,156 -54,132 -46,109 -67,162 -69,162 -76,176 -49,113 -74,168 -74,168 -51,114 -52,114 -54,118 -8,17 -150,331 -134,292 -56,121 -105,225 -63,135 -175,371 -60,126 -144,300 -34,71 z"
         style="fill:#b2b2b2;fill-opacity:1;fill-rule:evenodd;stroke:#b2b2b2;stroke-width:25;stroke-linecap:butt;stroke-linejoin:miter;stroke-miterlimit:10;stroke-dasharray:none;stroke-opacity:1"
         id="path22459" /><path
         d="m 18199,15777 947,67 v 0 l -45,103 v 0 l -902,-67 v -103 m 1233,87 1137,79 v 113 l -1179,-88 v 0 l 41,-104 h 1 m 957,782 -1225,-124 46,-109 1179,115 v 118 m -1529,-155 -922,-93 v -108 l 970,94 v 0 l -48,107 m -276,601 -941,-126 v -113 l 993,128 v 0 l -52,111 v 0 m 1593,215 -1274,-172 49,-113 1225,159 v 126 m -1081,595 -1,1 -484,-84 -12,-2 h -1 l 54,-118 h -1 l 1276,216 v 134 l -57,-10 -774,-135 v -2 0 m -827,-143 -960,-168 v -119 l 1015,172 v 0 l -56,115 h 1 m -1338,523 v -125 l 1034,226 v -1 l -59,119 v 0 l -152,-34 -823,-185 m 1375,175 1326,289 v 143 l -1382,-311 v 0 l 56,-121 v 0 m -399,852 1375,383 v 153 l -1435,-411 v 1 l 60,-126 v 0 m -1405,-392 1050,293 v 0 l -62,122 -181,-51 -525,-151 -282,-81 v -132 m 1929,-3608 923,44 h -1 l -41,99 -881,-45 v -98 m 2290,216 -109,-6 -693,-35 -333,-18 38,-100 1097,52 v 107 m -2085,-647 899,27 v 0 l -38,96 v 0 l -861,-28 v -95 m 2116,165 v 0 l -73,-3 -67,-2 -693,-23 -162,-5 36,-97 1056,31 v 102 l -97,-3 m -1934,-560 876,13 -35,92 -841,-15 v -90 m 1123,16 1016,16 v 96 l -63,-1 -142,-2 -140,-3 -693,-12 h -10 -1 l 33,-94 m 127,-378 979,2 v 93 l -153,-1 -141,-1 -141,-1 -574,-3 30,-89 m -236,-1 -32,89 -821,-4 v -87 l 853,2 m 847,-351 h 73 l 142,-1 228,-2 v 88 l -971,5 h -1 l 27,-86 435,-3 67,-1 m -726,5 -29,86 -802,4 v -84 l 831,-6 m 726,-328 73,-1 142,-2 288,-4 v 84 l -935,12 v 0 l 24,-83 v 0 l 341,-5 67,-1 m -648,92 -783,10 v -80 l 671,-11 139,-2 v 0 l -27,83 v 0 m 648,-389 73,-1 142,-3 v -1 0 1 l 336,-7 v 81 l -900,17 v 0 l 20,-80 h 1 l 261,-5 67,-2 m -554,91 -766,15 v -78 l 560,-12 229,-5 -23,80 v 0 m 769,-370 v 77 0 l -494,12 v 0 l 18,-77 v 0 l 194,-5 140,-4 142,-3 m -668,17 -21,76 v 0 l -749,18 v -75 l 463,-11 307,-8 v 0 m 48,-180 -732,19 v -72 l 377,-11 374,-11 v 0 l -19,74 v 1 m -355,-298 430,-13 v 0 l -16,71 v 0 l -717,21 v -70 l 303,-9 m -4,-219 481,-15 v -1 l -14,70 v 0 l -703,21 v -68 l 236,-7 m -62,-204 581,-18 v 0 l -12,67 h 1 l -689,20 v -65 l 119,-4 m 1041,-32 v 67 0 l -314,9 v 0 l 9,-67 v 0 l 304,-9 h 1 m 0,205 v 69 0 l -346,11 v 0 l 12,-70 v 0 l 334,-10 v 0 m 0,220 v 72 0 l -386,11 v 0 l 14,-72 v 0 l 290,-9 82,-2 v 0 m 0,236 v 75 0 l -435,12 v -1 l 16,-74 v 0 l 137,-4 140,-4 z"
         style="fill:#be8d41;fill-opacity:1;fill-rule:evenodd;stroke:#be8d41;stroke-width:25;stroke-linecap:butt;stroke-linejoin:miter;stroke-miterlimit:10;stroke-dasharray:none;stroke-opacity:1"
         id="path22461" /><path
         d="m 17313,20226 -238,-86 65,-124 65,-127 100,-195 173,-339 12,-23 62,-122 179,-357 175,-352 59,-119 138,-282 84,-173 81,-168 56,-115 105,-222 79,-167 76,-163 52,-111 79,-171 74,-161 71,-158 48,-107 58,-129 69,-156 66,-152 45,-103 40,-95 64,-150 62,-147 41,-99 28,-66 59,-145 57,-141 38,-96 17,-41 54,-140 53,-136 35,-92 8,-21 50,-135 48,-131 32,-89 2,-4 85,-241 2,-8 3,-7 29,-86 72,-217 6,-19 27,-83 58,-185 9,-30 23,-80 46,-157 11,-40 21,-76 36,-134 12,-47 19,-74 27,-112 13,-53 8,-36 8,-35 11,-47 10,-47 6,-29 6,-29 7,-35 7,-35 7,-38 8,-38 6,-32 5,-31 6,-34 6,-33 5,-30 5,-29 19,-123 132,-5 -16,124 -17,111 -19,116 -22,121 -25,126 -28,130 -30,137 -34,142 -37,148 -41,154 -45,162 -24,83 -25,85 -27,88 -27,89 -28,91 -30,93 -31,96 -32,97 -34,101 -35,102 -36,105 -38,107 -40,110 -41,113 -42,116 -45,119 -46,121 -48,125 -50,128 -51,131 -54,135 -56,139 -59,142 -60,146 -63,151 -65,154 -68,159 -71,163 -74,168 -76,174 -80,178 -82,183 -86,190 -90,195 -93,201 -97,208 -101,214 -105,221 -109,229 -114,236 -119,245 -124,253 -129,261 -135,271 z"
         style="fill:#b2b2b2;fill-opacity:1;fill-rule:evenodd;stroke:#b2b2b2;stroke-width:25;stroke-linecap:butt;stroke-linejoin:miter;stroke-miterlimit:10;stroke-dasharray:none;stroke-opacity:1"
         id="path22463" /><path
         d="m 28174,9319 v 5544 l -1630,-151 v -4542 l 1630,-851 m -11005,596 v 4842 l -1581,153 V 9050 l 199,105 199,106 199,107 198,107 197,109 197,109 196,111 z"
         style="fill:#ca3e3e;fill-opacity:1;fill-rule:evenodd;stroke:#ca3e3e;stroke-width:25;stroke-linecap:butt;stroke-linejoin:miter;stroke-miterlimit:10;stroke-dasharray:none;stroke-opacity:1"
         id="path22465" /><path
         d="m 18797,18701 -315,335"
         style="fill:none;stroke:#dc9501;stroke-width:24;stroke-linecap:butt;stroke-linejoin:miter;stroke-miterlimit:10;stroke-dasharray:none;stroke-opacity:1"
         id="path22467" /><path
         d="M 24613,11175 12406,6945"
         style="fill:none;stroke:#f9f9f9;stroke-width:12;stroke-linecap:butt;stroke-linejoin:miter;stroke-miterlimit:10;stroke-dasharray:none;stroke-opacity:1"
         id="path22469" /><path
         d="M 25581,10669 17523,6945"
         style="fill:none;stroke:#f9f9f9;stroke-width:12;stroke-linecap:butt;stroke-linejoin:miter;stroke-miterlimit:10;stroke-dasharray:none;stroke-opacity:1"
         id="path22471" /><path
         d="M 26966,9946 22640,6945"
         style="fill:none;stroke:#f9f9f9;stroke-width:12;stroke-linecap:butt;stroke-linejoin:miter;stroke-miterlimit:10;stroke-dasharray:none;stroke-opacity:1"
         id="path22473" /><path
         d="M 29110,8827 27757,6945"
         style="fill:none;stroke:#f9f9f9;stroke-width:12;stroke-linecap:butt;stroke-linejoin:miter;stroke-miterlimit:10;stroke-dasharray:none;stroke-opacity:1"
         id="path22475" /><path
         d="m 12817,7654 81,-709"
         style="fill:none;stroke:#f9f9f9;stroke-width:12;stroke-linecap:butt;stroke-linejoin:miter;stroke-miterlimit:10;stroke-dasharray:none;stroke-opacity:1"
         id="path22477" /><path
         d="M 15474,8990 16845,6945"
         style="fill:none;stroke:#f9f9f9;stroke-width:12;stroke-linecap:butt;stroke-linejoin:miter;stroke-miterlimit:10;stroke-dasharray:none;stroke-opacity:1"
         id="path22479" /><path
         d="M 17214,9860 20792,6945"
         style="fill:none;stroke:#f9f9f9;stroke-width:12;stroke-linecap:butt;stroke-linejoin:miter;stroke-miterlimit:10;stroke-dasharray:none;stroke-opacity:1"
         id="path22481" /><path
         d="M 18258,10576 24740,6945"
         style="fill:none;stroke:#f9f9f9;stroke-width:12;stroke-linecap:butt;stroke-linejoin:miter;stroke-miterlimit:10;stroke-dasharray:none;stroke-opacity:1"
         id="path22483" /><path
         d="M 18988,11086 28687,6945"
         style="fill:none;stroke:#f9f9f9;stroke-width:12;stroke-linecap:butt;stroke-linejoin:miter;stroke-miterlimit:10;stroke-dasharray:none;stroke-opacity:1"
         id="path22485" /><path
         d="M 19492,11478 29285,8100"
         style="fill:none;stroke:#f9f9f9;stroke-width:12;stroke-linecap:butt;stroke-linejoin:miter;stroke-miterlimit:10;stroke-dasharray:none;stroke-opacity:1"
         id="path22487" /><path
         d="m 19750,11815 1144,-331"
         style="fill:none;stroke:#f9f9f9;stroke-width:12;stroke-linecap:butt;stroke-linejoin:miter;stroke-miterlimit:10;stroke-dasharray:none;stroke-opacity:1"
         id="path22489" /><path
         d="m 20592,11912 299,-74"
         style="fill:none;stroke:#f9f9f9;stroke-width:12;stroke-linecap:butt;stroke-linejoin:miter;stroke-miterlimit:10;stroke-dasharray:none;stroke-opacity:1"
         id="path22491" /><path
         d="m 21731,11628 3850,-959"
         style="fill:none;stroke:#f9f9f9;stroke-width:12;stroke-linecap:butt;stroke-linejoin:miter;stroke-miterlimit:10;stroke-dasharray:none;stroke-opacity:1"
         id="path22493" /><path
         d="m 21731,11921 2499,-547"
         style="fill:none;stroke:#f9f9f9;stroke-width:12;stroke-linecap:butt;stroke-linejoin:miter;stroke-miterlimit:10;stroke-dasharray:none;stroke-opacity:1"
         id="path22495" /><path
         d="m 20611,12166 279,-61"
         style="fill:none;stroke:#f9f9f9;stroke-width:12;stroke-linecap:butt;stroke-linejoin:miter;stroke-miterlimit:10;stroke-dasharray:none;stroke-opacity:1"
         id="path22497" /><path
         d="m 20724,12163 -163,-25"
         style="fill:none;stroke:#f9f9f9;stroke-width:12;stroke-linecap:butt;stroke-linejoin:miter;stroke-miterlimit:10;stroke-dasharray:none;stroke-opacity:1"
         id="path22499" /><path
         d="m 20861,11953 -267,-46"
         style="fill:none;stroke:#f9f9f9;stroke-width:12;stroke-linecap:butt;stroke-linejoin:miter;stroke-miterlimit:10;stroke-dasharray:none;stroke-opacity:1"
         id="path22501" /><path
         d="m 22474,11976 -743,-148"
         style="fill:none;stroke:#f9f9f9;stroke-width:12;stroke-linecap:butt;stroke-linejoin:miter;stroke-miterlimit:10;stroke-dasharray:none;stroke-opacity:1"
         id="path22503" /><path
         d="m 20894,11663 -1583,-314"
         style="fill:none;stroke:#f9f9f9;stroke-width:12;stroke-linecap:butt;stroke-linejoin:miter;stroke-miterlimit:10;stroke-dasharray:none;stroke-opacity:1"
         id="path22505" /><path
         d="m 23273,11817 -1542,-356"
         style="fill:none;stroke:#f9f9f9;stroke-width:12;stroke-linecap:butt;stroke-linejoin:miter;stroke-miterlimit:10;stroke-dasharray:none;stroke-opacity:1"
         id="path22507" /><path
         d="m 21098,11315 -2647,-611"
         style="fill:none;stroke:#f9f9f9;stroke-width:12;stroke-linecap:butt;stroke-linejoin:miter;stroke-miterlimit:10;stroke-dasharray:none;stroke-opacity:1"
         id="path22509" /><path
         d="M 23898,11548 16657,9541"
         style="fill:none;stroke:#f9f9f9;stroke-width:12;stroke-linecap:butt;stroke-linejoin:miter;stroke-miterlimit:10;stroke-dasharray:none;stroke-opacity:1"
         id="path22511" /><path
         d="m 20367,11968 67,-16"
         style="fill:none;stroke:#f9f9f9;stroke-width:12;stroke-linecap:butt;stroke-linejoin:miter;stroke-miterlimit:10;stroke-dasharray:none;stroke-opacity:1"
         id="path22513" /><path
         d="m 28204,10806 -35,-25"
         style="fill:none;stroke:#f9f9f9;stroke-width:12;stroke-linecap:butt;stroke-linejoin:miter;stroke-miterlimit:10;stroke-dasharray:none;stroke-opacity:1"
         id="path22515" /><path
         d="m 28168,10024 36,-9"
         style="fill:none;stroke:#f9f9f9;stroke-width:12;stroke-linecap:butt;stroke-linejoin:miter;stroke-miterlimit:10;stroke-dasharray:none;stroke-opacity:1"
         id="path22517" /><path
         d="m 28168,10513 36,-8"
         style="fill:none;stroke:#f9f9f9;stroke-width:12;stroke-linecap:butt;stroke-linejoin:miter;stroke-miterlimit:10;stroke-dasharray:none;stroke-opacity:1"
         id="path22519" /><path
         d="m 20405,12113 -94,-14"
         style="fill:none;stroke:#f9f9f9;stroke-width:12;stroke-linecap:butt;stroke-linejoin:miter;stroke-miterlimit:10;stroke-dasharray:none;stroke-opacity:1"
         id="path22521" /><path
         d="m 20446,11881 -742,-128"
         style="fill:none;stroke:#f9f9f9;stroke-width:12;stroke-linecap:butt;stroke-linejoin:miter;stroke-miterlimit:10;stroke-dasharray:none;stroke-opacity:1"
         id="path22523" /><path
         d="m 20642,12338 -111,-15"
         style="fill:none;stroke:#f9f9f9;stroke-width:12;stroke-linecap:butt;stroke-linejoin:miter;stroke-miterlimit:10;stroke-dasharray:none;stroke-opacity:1"
         id="path22525" /><path
         d="m 21782,12112 -51,-8"
         style="fill:none;stroke:#f9f9f9;stroke-width:12;stroke-linecap:butt;stroke-linejoin:miter;stroke-miterlimit:10;stroke-dasharray:none;stroke-opacity:1"
         id="path22527" /><path
         d="m 17155,19604 v 1"
         style="fill:none;stroke:#f9f9f9;stroke-width:12;stroke-linecap:butt;stroke-linejoin:miter;stroke-miterlimit:10;stroke-dasharray:none;stroke-opacity:1"
         id="path22529" /><path
         d="m 16657,9541 -295,-82"
         style="fill:none;stroke:#f9f9f9;stroke-width:12;stroke-linecap:butt;stroke-linejoin:miter;stroke-miterlimit:10;stroke-dasharray:none;stroke-opacity:1"
         id="path22531" /><path
         d="m 17155,9908 59,-48"
         style="fill:none;stroke:#f9f9f9;stroke-width:12;stroke-linecap:butt;stroke-linejoin:miter;stroke-miterlimit:10;stroke-dasharray:none;stroke-opacity:1"
         id="path22533" /><path
         d="m 19959,12406 -15,-2"
         style="fill:none;stroke:#f9f9f9;stroke-width:12;stroke-linecap:butt;stroke-linejoin:miter;stroke-miterlimit:10;stroke-dasharray:none;stroke-opacity:1"
         id="path22535" /><path
         d="m 16362,9459 -19,-5"
         style="fill:none;stroke:#f9f9f9;stroke-width:12;stroke-linecap:butt;stroke-linejoin:miter;stroke-miterlimit:10;stroke-dasharray:none;stroke-opacity:1"
         id="path22537" /><path
         d="M 21526,11301 27909,9454"
         style="fill:none;stroke:#f9f9f9;stroke-width:12;stroke-linecap:butt;stroke-linejoin:miter;stroke-miterlimit:10;stroke-dasharray:none;stroke-opacity:1"
         id="path22539" /></g></g></svg>
